<svg width="292" height="234" viewBox="0 0 292 234" fill="none" xmlns="http://www.w3.org/2000/svg">
<path d="M85.873 127.863H97.958V144.929H85.873V168H64.7061V144.929H20.9805L20.0283 131.599L64.4863 61.3594H85.873V127.863ZM41.1221 127.863H64.7061V90.2168L63.3145 92.6338L41.1221 127.863ZM181.161 123.908C181.161 138.654 178.109 149.934 172.006 157.746C165.902 165.559 156.967 169.465 145.199 169.465C133.578 169.465 124.691 165.632 118.539 157.966C112.387 150.3 109.237 139.313 109.091 125.007V105.378C109.091 90.4854 112.167 79.1816 118.319 71.4668C124.521 63.752 133.432 59.8945 145.053 59.8945C156.674 59.8945 165.561 63.7275 171.713 71.3936C177.865 79.0107 181.015 89.9727 181.161 104.279V123.908ZM159.994 102.375C159.994 93.5371 158.773 87.1162 156.332 83.1123C153.939 79.0596 150.18 77.0332 145.053 77.0332C140.072 77.0332 136.386 78.9619 133.993 82.8193C131.649 86.6279 130.404 92.6094 130.258 100.764V126.691C130.258 135.383 131.43 141.853 133.773 146.101C136.166 150.3 139.975 152.399 145.199 152.399C150.375 152.399 154.11 150.373 156.405 146.32C158.7 142.268 159.896 136.066 159.994 127.717V102.375ZM258.139 127.863H270.224V144.929H258.139V168H236.972V144.929H193.246L192.294 131.599L236.752 61.3594H258.139V127.863ZM213.388 127.863H236.972V90.2168L235.58 92.6338L213.388 127.863Z" fill="#FF5500"/>
<path d="M85.873 127.863H84.873V128.863H85.873V127.863ZM97.958 127.863H98.958V126.863H97.958V127.863ZM97.958 144.929V145.929H98.958V144.929H97.958ZM85.873 144.929V143.929H84.873V144.929H85.873ZM85.873 168V169H86.873V168H85.873ZM64.7061 168H63.7061V169H64.7061V168ZM64.7061 144.929H65.7061V143.929H64.7061V144.929ZM20.9805 144.929L19.983 145L20.0493 145.929H20.9805V144.929ZM20.0283 131.599L19.1834 131.064L19.0074 131.342L19.0309 131.67L20.0283 131.599ZM64.4863 61.3594V60.3594H63.9358L63.6414 60.8246L64.4863 61.3594ZM85.873 61.3594H86.873V60.3594H85.873V61.3594ZM41.1221 127.863L40.276 127.33L39.3103 128.863H41.1221V127.863ZM64.7061 127.863V128.863H65.7061V127.863H64.7061ZM64.7061 90.2168H65.7061V86.4758L63.8394 89.7178L64.7061 90.2168ZM63.3145 92.6338L64.1606 93.1668L64.1712 93.15L64.1811 93.1328L63.3145 92.6338ZM85.873 128.863H97.958V126.863H85.873V128.863ZM96.958 127.863V144.929H98.958V127.863H96.958ZM97.958 143.929H85.873V145.929H97.958V143.929ZM84.873 144.929V168H86.873V144.929H84.873ZM85.873 167H64.7061V169H85.873V167ZM65.7061 168V144.929H63.7061V168H65.7061ZM64.7061 143.929H20.9805V145.929H64.7061V143.929ZM21.9779 144.857L21.0258 131.527L19.0309 131.67L19.983 145L21.9779 144.857ZM20.8733 132.133L65.3313 61.8942L63.6414 60.8246L19.1834 131.064L20.8733 132.133ZM64.4863 62.3594H85.873V60.3594H64.4863V62.3594ZM84.873 61.3594V127.863H86.873V61.3594H84.873ZM41.1221 128.863H64.7061V126.863H41.1221V128.863ZM65.7061 127.863V90.2168H63.7061V127.863H65.7061ZM63.8394 89.7178L62.4478 92.1348L64.1811 93.1328L65.5727 90.7158L63.8394 89.7178ZM62.4683 92.1008L40.276 127.33L41.9682 128.396L64.1606 93.1668L62.4683 92.1008ZM109.091 125.007L108.091 125.007L108.091 125.017L109.091 125.007ZM118.319 71.4668L117.54 70.8403L117.538 70.8433L118.319 71.4668ZM171.713 71.3936L170.933 72.0195L170.935 72.0219L171.713 71.3936ZM181.161 104.279L182.161 104.279L182.161 104.269L181.161 104.279ZM156.332 83.1123L155.471 83.6207L155.475 83.6268L155.478 83.6329L156.332 83.1123ZM133.993 82.8193L133.143 82.2922L133.142 82.2952L133.993 82.8193ZM130.258 100.764L129.258 100.746L129.258 100.755V100.764H130.258ZM133.773 146.101L132.898 146.584L132.905 146.596L133.773 146.101ZM159.994 127.717L160.994 127.728V127.717H159.994ZM180.161 123.908C180.161 138.535 177.131 149.561 171.218 157.13L172.794 158.362C179.087 150.306 182.161 138.773 182.161 123.908H180.161ZM171.218 157.13C165.34 164.654 156.723 168.465 145.199 168.465V170.465C157.21 170.465 166.464 166.463 172.794 158.362L171.218 157.13ZM145.199 168.465C133.82 168.465 125.246 164.725 119.319 157.34L117.759 158.592C124.137 166.538 133.337 170.465 145.199 170.465V168.465ZM119.319 157.34C113.358 149.913 110.236 139.178 110.091 124.997L108.091 125.017C108.239 139.449 111.415 150.687 117.759 158.592L119.319 157.34ZM110.091 125.007V105.378H108.091V125.007H110.091ZM110.091 105.378C110.091 90.6017 113.146 79.5577 119.101 72.0903L117.538 70.8433C111.188 78.8056 108.091 90.369 108.091 105.378H110.091ZM119.099 72.0933C125.076 64.657 133.676 60.8945 145.053 60.8945V58.8945C133.188 58.8945 123.965 62.8469 117.54 70.8403L119.099 72.0933ZM145.053 60.8945C156.432 60.8945 165.006 64.6342 170.933 72.0195L172.493 70.7676C166.115 62.8209 156.915 58.8945 145.053 58.8945V60.8945ZM170.935 72.0219C176.894 79.3992 180.016 90.1077 180.161 104.29L182.161 104.269C182.013 89.8376 178.837 78.6223 172.491 70.7652L170.935 72.0219ZM180.161 104.279V123.908H182.161V104.279H180.161ZM160.994 102.375C160.994 93.4905 159.775 86.8383 157.186 82.5917L155.478 83.6329C157.772 87.3941 158.994 93.5838 158.994 102.375H160.994ZM157.193 82.6039C154.602 78.2149 150.495 76.0332 145.053 76.0332V78.0332C149.864 78.0332 153.277 79.9042 155.471 83.6207L157.193 82.6039ZM145.053 76.0332C139.767 76.0332 135.739 78.1081 133.143 82.2922L134.843 83.3464C137.033 79.8157 140.378 78.0332 145.053 78.0332V76.0332ZM133.142 82.2952C130.655 86.3362 129.405 92.5383 129.258 100.746L131.258 100.782C131.403 92.6804 132.644 86.9197 134.845 83.3434L133.142 82.2952ZM129.258 100.764V126.691H131.258V100.764H129.258ZM129.258 126.691C129.258 135.437 130.431 142.112 132.898 146.584L134.649 145.618C132.428 141.593 131.258 135.328 131.258 126.691H129.258ZM132.905 146.596C135.492 151.137 139.651 153.399 145.199 153.399V151.399C140.298 151.399 136.84 149.463 134.642 145.606L132.905 146.596ZM145.199 153.399C150.687 153.399 154.78 151.219 157.275 146.813L155.535 145.828C153.44 149.527 150.063 151.399 145.199 151.399V153.399ZM157.275 146.813C159.696 142.539 160.896 136.132 160.994 127.728L158.994 127.705C158.897 136 157.704 141.997 155.535 145.828L157.275 146.813ZM160.994 127.717V102.375H158.994V127.717H160.994ZM258.139 127.863H257.139V128.863H258.139V127.863ZM270.224 127.863H271.224V126.863H270.224V127.863ZM270.224 144.929V145.929H271.224V144.929H270.224ZM258.139 144.929V143.929H257.139V144.929H258.139ZM258.139 168V169H259.139V168H258.139ZM236.972 168H235.972V169H236.972V168ZM236.972 144.929H237.972V143.929H236.972V144.929ZM193.246 144.929L192.249 145L192.315 145.929H193.246V144.929ZM192.294 131.599L191.449 131.064L191.273 131.342L191.296 131.67L192.294 131.599ZM236.752 61.3594V60.3594H236.201L235.907 60.8246L236.752 61.3594ZM258.139 61.3594H259.139V60.3594H258.139V61.3594ZM213.388 127.863L212.542 127.33L211.576 128.863H213.388V127.863ZM236.972 127.863V128.863H237.972V127.863H236.972ZM236.972 90.2168H237.972V86.4758L236.105 89.7178L236.972 90.2168ZM235.58 92.6338L236.426 93.1668L236.437 93.15L236.447 93.1328L235.58 92.6338ZM258.139 128.863H270.224V126.863H258.139V128.863ZM269.224 127.863V144.929H271.224V127.863H269.224ZM270.224 143.929H258.139V145.929H270.224V143.929ZM257.139 144.929V168H259.139V144.929H257.139ZM258.139 167H236.972V169H258.139V167ZM237.972 168V144.929H235.972V168H237.972ZM236.972 143.929H193.246V145.929H236.972V143.929ZM194.244 144.857L193.291 131.527L191.296 131.67L192.249 145L194.244 144.857ZM193.139 132.133L237.597 61.8942L235.907 60.8246L191.449 131.064L193.139 132.133ZM236.752 62.3594H258.139V60.3594H236.752V62.3594ZM257.139 61.3594V127.863H259.139V61.3594H257.139ZM213.388 128.863H236.972V126.863H213.388V128.863ZM237.972 127.863V90.2168H235.972V127.863H237.972ZM236.105 89.7178L234.713 92.1348L236.447 93.1328L237.838 90.7158L236.105 89.7178ZM234.734 92.1008L212.542 127.33L214.234 128.396L236.426 93.1668L234.734 92.1008Z" fill="#FF5500"/>
</svg>
