<svg width="81" height="15" viewBox="0 0 81 15" fill="none" xmlns="http://www.w3.org/2000/svg">
<g clip-path="url(#clip0_293_133)">
<path d="M6.08226 4.972L3.64756 3.5323C2.81726 3.0412 2.18796 2.726 1.75996 2.5884C0.0119554 2.0177 0.117155 4.5495 0.608555 5.3844C0.794855 5.7027 1.16296 6.0773 1.71086 6.513C-0.554745 5.6283 -0.0685447 8.7236 0.373255 9.8137C0.529455 10.1974 0.777655 10.5448 1.12016 10.8552C1.46256 11.1654 2.16446 11.6335 3.22596 12.2612L6.08226 13.9502V4.972V4.972ZM3.63036 5.0544V7.0521C3.51906 6.9826 3.43356 6.9302 3.37156 6.8935C3.11896 6.7442 2.95626 6.5912 2.88786 6.4391C2.81726 6.2838 2.78296 5.94 2.78296 5.4084C2.78296 5.1265 2.81086 4.9464 2.86866 4.867C2.92636 4.7895 3.00126 4.7619 3.09326 4.786C3.18526 4.8122 3.36496 4.9014 3.63036 5.0544V5.0544ZM3.63036 8.4482V10.968C3.26656 10.7414 3.03336 10.5525 2.93276 10.4004C2.83216 10.2482 2.78296 9.9902 2.78296 9.627V8.787C2.78296 8.4011 2.82796 8.1951 2.91776 8.1649C3.00766 8.1368 3.24516 8.2318 3.63036 8.4482Z" fill="white"/>
<path d="M14.3505 2.4547V11.4329L12.0393 12.18L12.0329 6.121L11.1147 12.4789L9.49683 13.002L8.52753 7.3903L8.52094 13.3174L6.33813 14.023V5.0448L9.62323 3.9828C9.71953 4.4947 9.82433 5.1003 9.93773 5.7939L10.3122 7.9523L10.9136 3.5657L14.3505 2.4547V2.4547Z" fill="white"/>
<path fill-rule="evenodd" clip-rule="evenodd" d="M9.62321 3.7207L6.99741 2.3806C6.03121 1.8874 7.51331 1.5969 8.17381 1.9342L10.8994 3.3252L10.9112 3.3213L14.3505 2.1925L9.91311 0.1928C9.25421 -0.1042 8.57991 -0.0194001 7.91061 0.1874L1.04651 2.303C1.34541 2.2176 1.53481 2.2834 1.84521 2.3847C2.27321 2.5225 2.81721 2.779 3.64751 3.2701L6.25231 4.8104L9.62321 3.7207V3.7207Z" fill="white"/>
<path d="M20.0328 8.685C19.5454 8.685 19.162 8.5373 18.8812 8.2427C18.6011 7.9473 18.4611 7.5364 18.4611 7.0107C18.4611 6.4859 18.6019 6.0765 18.8827 5.7811C19.1635 5.4858 19.5469 5.3381 20.0328 5.3381C20.3029 5.3381 20.5485 5.3924 20.7681 5.5011C20.9877 5.609 21.1621 5.7612 21.2914 5.9579C21.4208 6.1545 21.4889 6.3787 21.4965 6.6297H20.7054C20.6855 6.44 20.6143 6.2869 20.4904 6.1714C20.3657 6.0551 20.2134 5.9969 20.0328 5.9969C19.8071 5.9969 19.6288 6.088 19.4972 6.2686C19.3655 6.4491 19.2997 6.6963 19.2997 7.0084C19.2997 7.3252 19.3655 7.5739 19.4972 7.7545C19.6288 7.9358 19.8078 8.0261 20.0351 8.0261C20.2157 8.0261 20.3672 7.971 20.4889 7.8601C20.6105 7.7499 20.684 7.5991 20.71 7.4094H21.5011C21.4812 7.792 21.3366 8.1003 21.0657 8.3345C20.7957 8.5679 20.4514 8.685 20.0328 8.685V8.685Z" fill="white"/>
<path d="M24.1035 7.9657V8.6291H21.886V5.3939H24.1035V6.0581H22.7094V6.7009H24.0201V7.3061H22.7094V7.9657H24.1035Z" fill="white"/>
<path d="M25.3478 8.6291H24.5673V5.3939H25.2246L26.5966 7.2747H26.6142V5.3939H27.3947V8.6291H26.7443L25.3654 6.7307H25.3478V8.6291Z" fill="white"/>
<path d="M29.4546 8.6291H28.6343V6.0581H27.7421V5.3939H30.3468V6.0581H29.4546V8.6291Z" fill="white"/>
<path d="M31.5176 6.0153V6.9343H31.9989C32.1504 6.9343 32.2682 6.893 32.3532 6.8111C32.4389 6.7292 32.4809 6.6175 32.4809 6.4767C32.4809 6.3382 32.4373 6.2265 32.3486 6.1415C32.2606 6.0574 32.1435 6.0153 31.9973 6.0153H31.5176V6.0153ZM31.5176 7.4974V8.6291H30.6942V5.3939H32.08C32.4802 5.3939 32.7878 5.4881 33.0013 5.6748C33.2148 5.8615 33.3219 6.1239 33.3219 6.4614C33.3219 6.6649 33.2729 6.8486 33.175 7.0138C33.077 7.179 32.9416 7.2999 32.7679 7.3757L33.416 8.6291H32.4924L31.9361 7.4974H31.5176V7.4974Z" fill="white"/>
<path d="M35.8599 8.6291L35.6556 7.9182H34.5974L34.3916 8.6291H33.5529L34.6403 5.3939H35.6464L36.7338 8.6291H35.8599ZM35.1177 6.0803L34.7566 7.3267H35.4942L35.1353 6.0803H35.1177Z" fill="white"/>
<path d="M39.2045 7.9657V8.6291H37.0428V5.3939H37.8662V7.9657H39.2045Z" fill="white"/>
<path d="M42.0151 8.6291H40.4702V5.3939H41.9746C42.2929 5.3939 42.5424 5.4659 42.7237 5.6097C42.9043 5.7528 42.9946 5.9502 42.9946 6.2012C42.9946 6.3803 42.9349 6.5364 42.814 6.6672C42.6939 6.7988 42.5431 6.8777 42.3625 6.9029V6.9213C42.5837 6.9312 42.7696 7.0099 42.9196 7.1561C43.0696 7.303 43.1453 7.4828 43.1453 7.6963C43.1453 7.9802 43.0428 8.2067 42.8393 8.3758C42.6349 8.5449 42.3602 8.6291 42.0151 8.6291V8.6291ZM41.2936 5.977V6.7124H41.7167C41.8667 6.7124 41.983 6.6795 42.0679 6.6129C42.1521 6.5463 42.1942 6.4545 42.1942 6.3382C42.1942 6.2242 42.1559 6.1362 42.0786 6.0727C42.0021 6.0092 41.895 5.977 41.7573 5.977H41.2936V5.977ZM41.2936 8.046H41.7818C41.9524 8.046 42.0825 8.0101 42.1728 7.9374C42.2638 7.8647 42.309 7.7606 42.309 7.6244C42.309 7.4935 42.2623 7.3918 42.1697 7.3198C42.0771 7.2479 41.9463 7.2119 41.7772 7.2119H41.2936V8.046Z" fill="white"/>
<path d="M45.62 8.6291L45.4157 7.9182H44.3574L44.1516 8.6291H43.3129L44.4003 5.3939H45.4065L46.4939 8.6291H45.62V8.6291ZM44.8778 6.0803L44.5166 7.3267H45.2543L44.8954 6.0803H44.8778Z" fill="white"/>
<path d="M47.5835 8.6291H46.803V5.3939H47.4603L48.8323 7.2747H48.8499V5.3939H49.6303V8.6291H48.9799L47.6011 6.7307H47.5835V8.6291Z" fill="white"/>
<path d="M53.0958 7.2617C53.0958 7.704 52.9657 8.0521 52.7055 8.3054C52.4454 8.5587 52.0865 8.685 51.6274 8.685C51.1269 8.685 50.7351 8.5373 50.4528 8.2427C50.1704 7.9473 50.0289 7.5349 50.0289 7.0061C50.0289 6.4828 50.1697 6.0742 50.4505 5.7796C50.7313 5.4858 51.117 5.3381 51.6075 5.3381C51.997 5.3381 52.3268 5.4429 52.5961 5.6518C52.8647 5.8615 53.02 6.1308 53.0621 6.4614H52.2487C52.2082 6.3175 52.1309 6.205 52.0176 6.1232C51.9036 6.0405 51.7682 5.9992 51.6098 5.9992C51.3764 5.9992 51.1943 6.0872 51.0634 6.2617C50.9326 6.4369 50.8675 6.681 50.8675 6.9946C50.8675 7.313 50.9379 7.5639 51.078 7.7484C51.2188 7.932 51.4078 8.0238 51.6457 8.0238C51.8309 8.0238 51.9832 7.9741 52.1026 7.8738C52.2219 7.7736 52.2877 7.642 52.3 7.479L52.3023 7.43H51.71V6.8646H53.0958V7.2617V7.2617Z" fill="white"/>
<path d="M54.3271 5.3939V7.3941C54.3271 7.5838 54.376 7.7315 54.4755 7.8364C54.575 7.942 54.7158 7.9947 54.8987 7.9947C55.0808 7.9947 55.2208 7.942 55.3195 7.8364C55.4182 7.7315 55.468 7.5838 55.468 7.3941V5.3939H56.2906V7.4813C56.2906 7.8448 56.1635 8.1355 55.9095 8.3559C55.6554 8.5755 55.318 8.685 54.8987 8.685C54.477 8.685 54.1388 8.5755 53.8848 8.3559C53.6307 8.1355 53.5037 7.8448 53.5037 7.4813V5.3939H54.3271V5.3939Z" fill="white"/>
<path d="M57.5593 8.6291H56.7788V5.3939H57.4361L58.8081 7.2747H58.8257V5.3939H59.6062V8.6291H58.9558L57.5769 6.7307H57.5593V8.6291Z" fill="white"/>
<path d="M64.5355 8.6291H63.8116V6.6091H63.7955L62.9951 8.5954H62.5246L61.7265 6.6091H61.7089V8.6291H60.9843V5.3939H61.9354L62.7511 7.4721H62.7687L63.5851 5.3939H64.5355V8.6291Z" fill="white"/>
<path d="M67.1517 8.6291L66.9474 7.9182H65.8891L65.6833 8.6291H64.8446L65.932 5.3939H66.9382L68.0256 8.6291H67.1517V8.6291ZM66.4095 6.0803L66.0483 7.3267H66.786L66.4271 6.0803H66.4095Z" fill="white"/>
<path d="M69.1152 8.6291H68.3347V5.3939H68.992L70.3639 7.2747H70.3815V5.3939H71.1621V8.6291H70.5116L69.1328 6.7307H69.1152V8.6291Z" fill="white"/>
<path d="M71.6503 5.3939H72.9641C73.4562 5.3939 73.8372 5.5324 74.1089 5.8087C74.3798 6.0857 74.516 6.4798 74.516 6.9923C74.516 7.5081 74.379 7.9098 74.1066 8.1975C73.8334 8.4852 73.4531 8.6291 72.9641 8.6291H71.6503V5.3939ZM72.4737 6.0581V7.9657H72.857C73.1256 7.9657 73.3299 7.8838 73.4699 7.7208C73.6092 7.5586 73.6796 7.316 73.6796 6.9946C73.6796 6.6932 73.6077 6.4614 73.4646 6.2999C73.3207 6.1385 73.118 6.0581 72.857 6.0581H72.4737Z" fill="white"/>
<path d="M75.7379 8.6291H74.9146V5.3939H75.7379V8.6291Z" fill="white"/>
<path d="M77.0495 6.0153V6.9343H77.5308C77.6823 6.9343 77.8001 6.893 77.8851 6.8111C77.9708 6.7292 78.0128 6.6175 78.0128 6.4767C78.0128 6.3382 77.9692 6.2265 77.8805 6.1415C77.7925 6.0574 77.6754 6.0153 77.5292 6.0153H77.0495V6.0153ZM77.0495 7.4974V8.6291H76.2262V5.3939H77.6119C78.0121 5.3939 78.3197 5.4881 78.5332 5.6748C78.7467 5.8615 78.8538 6.1239 78.8538 6.4614C78.8538 6.6649 78.8048 6.8486 78.7069 7.0138C78.6089 7.179 78.4735 7.2999 78.2998 7.3757L78.9479 8.6291H78.0243L77.468 7.4974H77.0495V7.4974Z" fill="white"/>
<path d="M80.0873 8.6291H79.2639V5.3939H80.0873V8.6291Z" fill="white"/>
</g>
<defs>
<clipPath id="clip0_293_133">
<rect width="80.0872" height="14.023" fill="white"/>
</clipPath>
</defs>
</svg>
