<?xml version="1.0" encoding="UTF-8"?>
<!DOCTYPE svg PUBLIC "-//W3C//DTD SVG 1.1//EN" "http://www.w3.org/Graphics/SVG/1.1/DTD/svg11.dtd">
<!-- Creator: CorelDRAW 2018 (64-Bit Evaluation Version) -->
<svg xmlns="http://www.w3.org/2000/svg" xml:space="preserve" width="80.0872mm" height="14.023mm" version="1.1" style="shape-rendering:geometricPrecision; text-rendering:geometricPrecision; image-rendering:optimizeQuality; fill-rule:evenodd; clip-rule:evenodd"
viewBox="0 0 8008.72 1402.3"
 xmlns:xlink="http://www.w3.org/1999/xlink">
 <defs>
  <style type="text/css">
   <![CDATA[
    .fil1 {fill:#222222}
    .fil0 {fill:#222222;fill-rule:nonzero}
   ]]>
  </style>
 </defs>
 <g id="Layer_x0020_1">
  <metadata id="CorelCorpID_0Corel-Layer"/>
  <g id="_2240244168640">
   <path class="fil0" d="M608.22 497.2l-243.47 -143.97c-83.03,-49.11 -145.96,-80.63 -188.76,-94.39 -174.8,-57.07 -164.28,196.11 -115.14,279.6 18.63,31.83 55.44,69.29 110.23,112.86 -226.56,-88.47 -177.94,221.06 -133.76,330.07 15.62,38.37 40.44,73.11 74.69,104.15 34.24,31.02 104.43,77.83 210.58,140.6l285.63 168.9 0 -897.82zm-245.19 8.24l0 199.77c-11.13,-6.95 -19.68,-12.19 -25.88,-15.86 -25.26,-14.93 -41.53,-30.23 -48.37,-45.44 -7.06,-15.53 -10.49,-49.91 -10.49,-103.07 0,-28.19 2.79,-46.2 8.57,-54.14 5.77,-7.75 13.26,-10.51 22.46,-8.1 9.2,2.62 27.17,11.54 53.71,26.84zm0 339.38l0 251.98c-36.38,-22.66 -59.7,-41.55 -69.76,-56.76 -10.06,-15.22 -14.98,-41.02 -14.98,-77.34l0 -84c0,-38.59 4.5,-59.19 13.48,-62.21 8.99,-2.81 32.74,6.69 71.26,28.33z"/>
   <path class="fil0" d="M1435.05 245.47l0 897.82 -231.12 74.71 -0.64 -605.9 -91.82 635.79 -161.79 52.31 -96.93 -561.17 -0.66 592.71 -218.28 70.56 0 -897.82 328.51 -106.2c9.63,51.19 20.11,111.75 31.45,181.11l37.45 215.84 60.14 -438.66 343.69 -111.1z"/>
   <path class="fil1" d="M962.32 372.07l-262.58 -134.01c-96.62,-49.32 51.59,-78.37 117.64,-44.64l272.56 139.1 1.18 -0.39 343.93 -112.88 -443.74 -199.97c-65.89,-29.7 -133.32,-21.22 -200.25,-0.54l-686.41 211.56c29.89,-8.54 48.83,-1.96 79.87,8.17 42.8,13.78 97.2,39.43 180.23,88.54l260.48 154.03 337.09 -108.97z"/>
  </g>
  <g id="_2240244157696">
   <path class="fil0" d="M2003.27 868.5c-48.74,0 -87.08,-14.77 -115.16,-44.23 -28.01,-29.54 -42.01,-70.63 -42.01,-123.2 0,-52.48 14.08,-93.42 42.16,-122.96 28.08,-29.53 66.42,-44.3 115.01,-44.3 27.01,0 51.57,5.43 73.53,16.3 21.96,10.79 39.4,26.01 52.33,45.68 12.94,19.66 19.75,42.08 20.51,67.18l-79.11 0c-1.99,-18.97 -9.11,-34.28 -21.5,-45.83 -12.47,-11.63 -27.7,-17.45 -45.76,-17.45 -22.57,0 -40.4,9.11 -53.56,27.17 -13.17,18.05 -19.75,42.77 -19.75,73.98 0,31.68 6.58,56.55 19.75,74.61 13.16,18.13 31.06,27.16 53.79,27.16 18.06,0 33.21,-5.51 45.38,-16.6 12.16,-11.02 19.51,-26.1 22.11,-45.07l79.11 0c-1.99,38.26 -16.45,69.09 -43.54,92.51 -27,23.34 -61.43,35.05 -103.29,35.05z"/>
   <polygon id="_1" class="fil0" points="2410.34,796.57 2410.34,862.91 2188.59,862.91 2188.59,539.39 2410.34,539.39 2410.34,605.81 2270.93,605.81 2270.93,670.09 2402,670.09 2402,730.61 2270.93,730.61 2270.93,796.57 "/>
   <polygon id="_2" class="fil0" points="2534.77,862.91 2456.72,862.91 2456.72,539.39 2522.45,539.39 2659.65,727.47 2661.41,727.47 2661.41,539.39 2739.46,539.39 2739.46,862.91 2674.42,862.91 2536.53,673.07 2534.77,673.07 "/>
   <polygon id="_3" class="fil0" points="2945.45,862.91 2863.42,862.91 2863.42,605.81 2774.2,605.81 2774.2,539.39 3034.67,539.39 3034.67,605.81 2945.45,605.81 "/>
   <path id="_4" class="fil0" d="M3151.75 601.53l0 91.9 48.13 0c15.15,0 26.93,-4.13 35.43,-12.32 8.57,-8.19 12.77,-19.36 12.77,-33.44 0,-13.85 -4.36,-25.02 -13.23,-33.52 -8.8,-8.41 -20.51,-12.62 -35.13,-12.62l-47.97 0zm0 148.21l0 113.17 -82.34 0 0 -323.52 138.58 0c40.02,0 70.78,9.42 92.13,28.09 21.35,18.67 32.06,44.91 32.06,78.66 0,20.35 -4.9,38.72 -14.69,55.24 -9.8,16.52 -23.34,28.61 -40.71,36.19l64.81 125.34 -92.36 0 -55.63 -113.17 -41.85 0z"/>
   <path id="_5" class="fil0" d="M3585.98 862.91l-20.43 -71.09 -105.82 0 -20.58 71.09 -83.87 0 108.74 -323.52 100.61 0 108.74 323.52 -87.39 0zm-74.22 -254.88l-36.11 124.64 73.76 0 -35.89 -124.64 -1.76 0z"/>
   <polygon id="_6" class="fil0" points="3920.45,796.57 3920.45,862.91 3704.28,862.91 3704.28,539.39 3786.62,539.39 3786.62,796.57 "/>
   <path id="_7" class="fil0" d="M4201.5 862.91l-154.49 0 0 -323.52 150.44 0c31.83,0 56.78,7.2 74.91,21.58 18.06,14.31 27.09,34.05 27.09,59.15 0,17.91 -5.97,33.52 -18.06,46.6 -12.01,13.16 -27.09,21.05 -45.15,23.57l0 1.84c22.12,0.99 40.71,8.86 55.71,23.48 15,14.69 22.57,32.67 22.57,54.02 0,28.39 -10.25,51.04 -30.6,67.95 -20.44,16.91 -47.91,25.33 -82.42,25.33zm-72.15 -265.21l0 73.54 42.31 0c15,0 26.63,-3.29 35.12,-9.95 8.42,-6.66 12.63,-15.84 12.63,-27.47 0,-11.4 -3.83,-20.2 -11.56,-26.55 -7.65,-6.35 -18.36,-9.57 -32.13,-9.57l-46.37 0zm0 206.9l48.82 0c17.06,0 30.07,-3.59 39.1,-10.86 9.1,-7.27 13.62,-17.68 13.62,-31.3 0,-13.09 -4.67,-23.26 -13.93,-30.46 -9.26,-7.19 -22.34,-10.79 -39.25,-10.79l-48.36 0 0 83.41z"/>
   <path id="_8" class="fil0" d="M4561.99 862.91l-20.43 -71.09 -105.83 0 -20.58 71.09 -83.87 0 108.74 -323.52 100.62 0 108.74 323.52 -87.39 0zm-74.22 -254.88l-36.12 124.64 73.77 0 -35.89 -124.64 -1.76 0z"/>
   <polygon id="_9" class="fil0" points="4758.34,862.91 4680.29,862.91 4680.29,539.39 4746.02,539.39 4883.22,727.47 4884.98,727.47 4884.98,539.39 4963.02,539.39 4963.02,862.91 4897.98,862.91 4760.1,673.07 4758.34,673.07 "/>
   <path id="_10" class="fil0" d="M5309.58 726.17c0,44.23 -13.01,79.04 -39.03,104.37 -26.01,25.33 -61.9,37.96 -107.81,37.96 -50.05,0 -89.23,-14.77 -117.46,-44.23 -28.24,-29.54 -42.39,-70.78 -42.39,-123.66 0,-52.33 14.08,-93.19 42.16,-122.65 28.08,-29.38 66.65,-44.15 115.7,-44.15 38.95,0 71.93,10.48 98.86,31.37 26.86,20.97 42.39,47.9 46.6,80.96l-81.34 0c-4.05,-14.39 -11.78,-25.64 -23.11,-33.82 -11.4,-8.27 -24.94,-12.4 -40.78,-12.4 -23.34,0 -41.55,8.8 -54.64,26.25 -13.08,17.52 -19.59,41.93 -19.59,73.29 0,31.84 7.04,56.93 21.05,75.38 14.08,18.36 32.98,27.54 56.77,27.54 18.52,0 33.75,-4.97 45.69,-15 11.93,-10.02 18.51,-23.18 19.74,-39.48l0.23 -4.9 -59.23 0 0 -56.54 138.58 0 0 39.71z"/>
   <path id="_11" class="fil0" d="M5432.7 539.39l0 200.02c0,18.97 4.89,33.74 14.84,44.23 9.95,10.56 24.03,15.83 42.32,15.83 18.21,0 32.21,-5.27 42.08,-15.83 9.87,-10.49 14.85,-25.26 14.85,-44.23l0 -200.02 82.26 0 0 208.74c0,36.35 -12.71,65.42 -38.11,87.46 -25.41,21.96 -59.15,32.91 -101.08,32.91 -42.17,0 -75.99,-10.95 -101.39,-32.91 -25.41,-22.04 -38.11,-51.11 -38.11,-87.46l0 -208.74 82.34 0z"/>
   <polygon id="_12" class="fil0" points="5755.92,862.91 5677.87,862.91 5677.87,539.39 5743.6,539.39 5880.8,727.47 5882.56,727.47 5882.56,539.39 5960.61,539.39 5960.61,862.91 5895.57,862.91 5757.68,673.07 5755.92,673.07 "/>
   <polygon id="_13" class="fil0" points="6453.54,862.91 6381.15,862.91 6381.15,660.91 6379.54,660.91 6299.5,859.54 6252.45,859.54 6172.64,660.91 6170.88,660.91 6170.88,862.91 6098.42,862.91 6098.42,539.39 6193.53,539.39 6275.1,747.21 6276.86,747.21 6358.5,539.39 6453.54,539.39 "/>
   <path id="_14" class="fil0" d="M6715.16 862.91l-20.43 -71.09 -105.83 0 -20.58 71.09 -83.87 0 108.74 -323.52 100.62 0 108.74 323.52 -87.39 0zm-74.22 -254.88l-36.12 124.64 73.77 0 -35.89 -124.64 -1.76 0z"/>
   <polygon id="_15" class="fil0" points="6911.51,862.91 6833.46,862.91 6833.46,539.39 6899.19,539.39 7036.38,727.47 7038.14,727.47 7038.14,539.39 7116.2,539.39 7116.2,862.91 7051.15,862.91 6913.27,673.07 6911.51,673.07 "/>
   <path id="_16" class="fil0" d="M7165.02 539.39l131.38 0c49.21,0 87.31,13.85 114.48,41.48 27.09,27.7 40.71,67.11 40.71,118.36 0,51.58 -13.7,91.75 -40.94,120.52 -27.32,28.77 -65.35,43.16 -114.25,43.16l-131.38 0 0 -323.52zm82.34 66.42l0 190.76 38.33 0c26.86,0 47.29,-8.19 61.29,-24.49 13.93,-16.22 20.97,-40.48 20.97,-72.62 0,-30.14 -7.19,-53.32 -21.5,-69.47 -14.39,-16.14 -34.66,-24.18 -60.76,-24.18l-38.33 0z"/>
   <polygon id="_17" class="fil0" points="7573.79,862.91 7491.45,862.91 7491.45,539.39 7573.79,539.39 "/>
   <path id="_18" class="fil0" d="M7704.94 601.53l0 91.9 48.13 0c15.15,0 26.93,-4.13 35.43,-12.32 8.57,-8.19 12.77,-19.36 12.77,-33.44 0,-13.85 -4.36,-25.02 -13.23,-33.52 -8.8,-8.41 -20.51,-12.62 -35.13,-12.62l-47.97 0zm0 148.21l0 113.17 -82.33 0 0 -323.52 138.57 0c40.02,0 70.78,9.42 92.13,28.09 21.35,18.67 32.06,44.91 32.06,78.66 0,20.35 -4.9,38.72 -14.69,55.24 -9.8,16.52 -23.34,28.61 -40.71,36.19l64.81 125.34 -92.36 0 -55.63 -113.17 -41.85 0z"/>
   <polygon id="_19" class="fil0" points="8008.72,862.91 7926.38,862.91 7926.38,539.39 8008.72,539.39 "/>
  </g>
 </g>
</svg>
