<svg width="106" height="106" viewBox="0 0 106 106" fill="none" xmlns="http://www.w3.org/2000/svg">
<path d="M0 5C0 2.23858 2.23858 0 5 0H76C92.5685 0 106 13.4315 106 30V86C106 97.0457 97.0457 106 86 106H30C13.4315 106 0 92.5685 0 76V5Z" fill="#164396"/>
<mask id="mask0_395_64" style="mask-type:alpha" maskUnits="userSpaceOnUse" x="0" y="0" width="106" height="106">
<path d="M0 5C0 2.23858 2.23858 0 5 0H76C92.5685 0 106 13.4315 106 30V86C106 97.0457 97.0457 106 86 106H30C13.4315 106 0 92.5685 0 76V5Z" fill="#E5E5E5"/>
</mask>
<g mask="url(#mask0_395_64)">
<rect x="103" y="30" width="20" height="47" fill="#00D2A0"/>
</g>
<mask id="path-4-inside-1_395_64" fill="white">
<path d="M40.9254 22.5676C37.1771 22.5676 34.1103 25.6344 34.1103 29.3827V62.0954C34.1049 62.5852 34.3605 63.0431 34.7865 63.2934C35.2124 63.5383 35.7342 63.5383 36.1601 63.2934C36.5861 63.0431 36.8417 62.5852 36.8363 62.0954V29.3827C36.8363 27.1092 38.6519 25.2936 40.9254 25.2936H42.2884C42.7783 25.299 43.2362 25.0434 43.4864 24.6175C43.7313 24.1915 43.7313 23.6697 43.4864 23.2438C43.2362 22.8178 42.7783 22.5623 42.2884 22.5676H40.9254ZM70.912 22.5676C67.1637 22.5676 64.0969 25.6344 64.0969 29.3827V30.7458H38.1994V33.4718H64.0969V38.9239H38.1994V41.65H64.0969V47.1021H38.1994V49.8281H64.0969V55.2803H38.1994V58.0063H64.0969V62.0954C64.0916 62.5852 64.3471 63.0431 64.7731 63.2934C65.199 63.5383 65.7208 63.5383 66.1468 63.2934C66.5727 63.0431 66.8283 62.5852 66.823 62.0954V29.3827C66.823 27.1092 68.6385 25.2936 70.912 25.2936H72.2751C72.7649 25.299 73.2228 25.0434 73.473 24.6175C73.718 24.1915 73.718 23.6697 73.473 23.2438C73.2228 22.8178 72.7649 22.5623 72.2751 22.5676H70.912ZM42.9646 63.4371C42.8794 63.4425 42.7996 63.4478 42.7197 63.4638C42.7091 63.4691 42.6984 63.4691 42.6931 63.4744C42.379 63.533 42.1021 63.7034 41.9051 63.9483C41.6336 64.2038 39.4453 66.1845 35.4733 66.1845C31.496 66.1845 29.3131 64.1985 29.0415 63.9483C28.7806 63.6182 28.376 63.4371 27.9553 63.4425C27.9447 63.4478 27.9341 63.4478 27.9287 63.4478C27.5347 63.4584 27.162 63.6395 26.9118 63.9483C26.6402 64.2038 24.4519 66.1845 20.48 66.1845C19.9902 66.1792 19.5323 66.4347 19.282 66.8607C19.0371 67.2866 19.0371 67.8084 19.282 68.2344C19.5323 68.6603 19.9902 68.9159 20.48 68.9105C24.0846 68.9105 26.6722 67.4677 27.9766 66.5465C29.2811 67.4677 31.8687 68.9105 35.4733 68.9105C39.0779 68.9105 41.6655 67.4677 42.97 66.5465C44.2744 67.4677 46.862 68.9105 50.4666 68.9105C54.0712 68.9105 56.6588 67.4677 57.9633 66.5465C59.2677 67.4677 61.8554 68.9105 65.4599 68.9105C69.0645 68.9105 71.6521 67.4677 72.9566 66.5465C74.261 67.4677 76.8487 68.9105 80.4532 68.9105C80.9431 68.9159 81.401 68.6603 81.6512 68.2344C81.8961 67.8084 81.8961 67.2866 81.6512 66.8607C81.401 66.4347 80.9431 66.1792 80.4532 66.1845C76.5611 66.1845 74.4048 64.2997 74.0587 63.9749C73.7446 63.5596 73.2175 63.3626 72.7063 63.4638C72.3869 63.5223 72.094 63.6927 71.8917 63.9483C71.6202 64.2038 69.4319 66.1845 65.4599 66.1845C61.5678 66.1845 59.4115 64.2997 59.0654 63.9749C58.7513 63.5596 58.2242 63.3626 57.713 63.4638C57.7024 63.4691 57.6917 63.4691 57.6864 63.4744C57.3723 63.533 57.0954 63.7034 56.8984 63.9483C56.6269 64.2038 54.4386 66.1845 50.4666 66.1845C46.5745 66.1845 44.4182 64.2997 44.0721 63.9749C43.8059 63.6288 43.3959 63.4318 42.9646 63.4371ZM42.9646 71.6153C42.8794 71.6206 42.7996 71.626 42.7197 71.6419C42.7091 71.6473 42.6984 71.6473 42.6931 71.6526C42.379 71.7111 42.1021 71.8815 41.9051 72.1264C41.6336 72.382 39.4453 74.3627 35.4733 74.3627C31.496 74.3627 29.3131 72.3767 29.0415 72.1264C28.7806 71.7963 28.376 71.6153 27.9553 71.6206C27.9447 71.626 27.9341 71.626 27.9287 71.626C27.5347 71.6366 27.162 71.8176 26.9118 72.1264C26.6402 72.382 24.4519 74.3627 20.48 74.3627C19.9902 74.3573 19.5323 74.6129 19.282 75.0388C19.0371 75.4648 19.0371 75.9866 19.282 76.4125C19.5323 76.8385 19.9902 77.094 20.48 77.0887C24.0846 77.0887 26.6722 75.6458 27.9766 74.7247C29.2811 75.6458 31.8687 77.0887 35.4733 77.0887C39.0779 77.0887 41.6655 75.6458 42.97 74.7247C44.2744 75.6458 46.862 77.0887 50.4666 77.0887C54.0712 77.0887 56.6588 75.6458 57.9633 74.7247C59.2677 75.6458 61.8554 77.0887 65.4599 77.0887C69.0645 77.0887 71.6521 75.6458 72.9566 74.7247C74.261 75.6458 76.8487 77.0887 80.4532 77.0887C80.9431 77.094 81.401 76.8385 81.6512 76.4125C81.8961 75.9866 81.8961 75.4648 81.6512 75.0388C81.401 74.6129 80.9431 74.3573 80.4532 74.3627C76.5611 74.3627 74.4048 72.4778 74.0587 72.1531C73.7446 71.7378 73.2175 71.5408 72.7063 71.6419C72.3869 71.7005 72.094 71.8709 71.8917 72.1264C71.6202 72.382 69.4319 74.3627 65.4599 74.3627C61.5678 74.3627 59.4115 72.4778 59.0654 72.1531C58.7513 71.7378 58.2242 71.5408 57.713 71.6419C57.7024 71.6473 57.6917 71.6473 57.6864 71.6526C57.3723 71.7111 57.0954 71.8815 56.8984 72.1264C56.6269 72.382 54.4386 74.3627 50.4666 74.3627C46.5745 74.3627 44.4182 72.4778 44.0721 72.1531C43.8059 71.807 43.3959 71.61 42.9646 71.6153ZM42.9646 79.7935C42.8794 79.7988 42.7996 79.8041 42.7197 79.8201C42.7091 79.8254 42.6984 79.8254 42.6931 79.8307C42.379 79.8893 42.1021 80.0597 41.9051 80.3046C41.6336 80.5602 39.4453 82.5408 35.4733 82.5408C31.496 82.5408 29.3131 80.5549 29.0415 80.3046C28.7806 79.9745 28.376 79.7935 27.9553 79.7988C27.9447 79.8041 27.9341 79.8041 27.9287 79.8041C27.5347 79.8148 27.162 79.9958 26.9118 80.3046C26.6402 80.5602 24.4519 82.5408 20.48 82.5408C19.9902 82.5355 19.5323 82.7911 19.282 83.217C19.0371 83.643 19.0371 84.1647 19.282 84.5907C19.5323 85.0166 19.9902 85.2722 20.48 85.2669C24.0846 85.2669 26.6722 83.824 27.9766 82.9029C29.2811 83.824 31.8687 85.2669 35.4733 85.2669C39.0779 85.2669 41.6655 83.824 42.97 82.9029C44.2744 83.824 46.862 85.2669 50.4666 85.2669C54.0712 85.2669 56.6588 83.824 57.9633 82.9029C59.2677 83.824 61.8554 85.2669 65.4599 85.2669C69.0645 85.2669 71.6521 83.824 72.9566 82.9029C74.261 83.824 76.8487 85.2669 80.4532 85.2669C80.9431 85.2722 81.401 85.0166 81.6512 84.5907C81.8961 84.1647 81.8961 83.643 81.6512 83.217C81.401 82.7911 80.9431 82.5355 80.4532 82.5408C76.5611 82.5408 74.4048 80.656 74.0587 80.3312C73.7446 79.9159 73.2175 79.7189 72.7063 79.8201C72.3869 79.8787 72.094 80.049 71.8917 80.3046C71.6202 80.5602 69.4319 82.5408 65.4599 82.5408C61.5678 82.5408 59.4115 80.656 59.0654 80.3312C58.7513 79.9159 58.2242 79.7189 57.713 79.8201C57.7024 79.8254 57.6917 79.8254 57.6864 79.8307C57.3723 79.8893 57.0954 80.0597 56.8984 80.3046C56.6269 80.5602 54.4386 82.5408 50.4666 82.5408C46.5745 82.5408 44.4182 80.656 44.0721 80.3312C43.8059 79.9851 43.3959 79.7882 42.9646 79.7935Z"/>
</mask>
<path d="M40.9254 22.5676C37.1771 22.5676 34.1103 25.6344 34.1103 29.3827V62.0954C34.1049 62.5852 34.3605 63.0431 34.7865 63.2934C35.2124 63.5383 35.7342 63.5383 36.1601 63.2934C36.5861 63.0431 36.8417 62.5852 36.8363 62.0954V29.3827C36.8363 27.1092 38.6519 25.2936 40.9254 25.2936H42.2884C42.7783 25.299 43.2362 25.0434 43.4864 24.6175C43.7313 24.1915 43.7313 23.6697 43.4864 23.2438C43.2362 22.8178 42.7783 22.5623 42.2884 22.5676H40.9254ZM70.912 22.5676C67.1637 22.5676 64.0969 25.6344 64.0969 29.3827V30.7458H38.1994V33.4718H64.0969V38.9239H38.1994V41.65H64.0969V47.1021H38.1994V49.8281H64.0969V55.2803H38.1994V58.0063H64.0969V62.0954C64.0916 62.5852 64.3471 63.0431 64.7731 63.2934C65.199 63.5383 65.7208 63.5383 66.1468 63.2934C66.5727 63.0431 66.8283 62.5852 66.823 62.0954V29.3827C66.823 27.1092 68.6385 25.2936 70.912 25.2936H72.2751C72.7649 25.299 73.2228 25.0434 73.473 24.6175C73.718 24.1915 73.718 23.6697 73.473 23.2438C73.2228 22.8178 72.7649 22.5623 72.2751 22.5676H70.912ZM42.9646 63.4371C42.8794 63.4425 42.7996 63.4478 42.7197 63.4638C42.7091 63.4691 42.6984 63.4691 42.6931 63.4744C42.379 63.533 42.1021 63.7034 41.9051 63.9483C41.6336 64.2038 39.4453 66.1845 35.4733 66.1845C31.496 66.1845 29.3131 64.1985 29.0415 63.9483C28.7806 63.6182 28.376 63.4371 27.9553 63.4425C27.9447 63.4478 27.9341 63.4478 27.9287 63.4478C27.5347 63.4584 27.162 63.6395 26.9118 63.9483C26.6402 64.2038 24.4519 66.1845 20.48 66.1845C19.9902 66.1792 19.5323 66.4347 19.282 66.8607C19.0371 67.2866 19.0371 67.8084 19.282 68.2344C19.5323 68.6603 19.9902 68.9159 20.48 68.9105C24.0846 68.9105 26.6722 67.4677 27.9766 66.5465C29.2811 67.4677 31.8687 68.9105 35.4733 68.9105C39.0779 68.9105 41.6655 67.4677 42.97 66.5465C44.2744 67.4677 46.862 68.9105 50.4666 68.9105C54.0712 68.9105 56.6588 67.4677 57.9633 66.5465C59.2677 67.4677 61.8554 68.9105 65.4599 68.9105C69.0645 68.9105 71.6521 67.4677 72.9566 66.5465C74.261 67.4677 76.8487 68.9105 80.4532 68.9105C80.9431 68.9159 81.401 68.6603 81.6512 68.2344C81.8961 67.8084 81.8961 67.2866 81.6512 66.8607C81.401 66.4347 80.9431 66.1792 80.4532 66.1845C76.5611 66.1845 74.4048 64.2997 74.0587 63.9749C73.7446 63.5596 73.2175 63.3626 72.7063 63.4638C72.3869 63.5223 72.094 63.6927 71.8917 63.9483C71.6202 64.2038 69.4319 66.1845 65.4599 66.1845C61.5678 66.1845 59.4115 64.2997 59.0654 63.9749C58.7513 63.5596 58.2242 63.3626 57.713 63.4638C57.7024 63.4691 57.6917 63.4691 57.6864 63.4744C57.3723 63.533 57.0954 63.7034 56.8984 63.9483C56.6269 64.2038 54.4386 66.1845 50.4666 66.1845C46.5745 66.1845 44.4182 64.2997 44.0721 63.9749C43.8059 63.6288 43.3959 63.4318 42.9646 63.4371ZM42.9646 71.6153C42.8794 71.6206 42.7996 71.626 42.7197 71.6419C42.7091 71.6473 42.6984 71.6473 42.6931 71.6526C42.379 71.7111 42.1021 71.8815 41.9051 72.1264C41.6336 72.382 39.4453 74.3627 35.4733 74.3627C31.496 74.3627 29.3131 72.3767 29.0415 72.1264C28.7806 71.7963 28.376 71.6153 27.9553 71.6206C27.9447 71.626 27.9341 71.626 27.9287 71.626C27.5347 71.6366 27.162 71.8176 26.9118 72.1264C26.6402 72.382 24.4519 74.3627 20.48 74.3627C19.9902 74.3573 19.5323 74.6129 19.282 75.0388C19.0371 75.4648 19.0371 75.9866 19.282 76.4125C19.5323 76.8385 19.9902 77.094 20.48 77.0887C24.0846 77.0887 26.6722 75.6458 27.9766 74.7247C29.2811 75.6458 31.8687 77.0887 35.4733 77.0887C39.0779 77.0887 41.6655 75.6458 42.97 74.7247C44.2744 75.6458 46.862 77.0887 50.4666 77.0887C54.0712 77.0887 56.6588 75.6458 57.9633 74.7247C59.2677 75.6458 61.8554 77.0887 65.4599 77.0887C69.0645 77.0887 71.6521 75.6458 72.9566 74.7247C74.261 75.6458 76.8487 77.0887 80.4532 77.0887C80.9431 77.094 81.401 76.8385 81.6512 76.4125C81.8961 75.9866 81.8961 75.4648 81.6512 75.0388C81.401 74.6129 80.9431 74.3573 80.4532 74.3627C76.5611 74.3627 74.4048 72.4778 74.0587 72.1531C73.7446 71.7378 73.2175 71.5408 72.7063 71.6419C72.3869 71.7005 72.094 71.8709 71.8917 72.1264C71.6202 72.382 69.4319 74.3627 65.4599 74.3627C61.5678 74.3627 59.4115 72.4778 59.0654 72.1531C58.7513 71.7378 58.2242 71.5408 57.713 71.6419C57.7024 71.6473 57.6917 71.6473 57.6864 71.6526C57.3723 71.7111 57.0954 71.8815 56.8984 72.1264C56.6269 72.382 54.4386 74.3627 50.4666 74.3627C46.5745 74.3627 44.4182 72.4778 44.0721 72.1531C43.8059 71.807 43.3959 71.61 42.9646 71.6153ZM42.9646 79.7935C42.8794 79.7988 42.7996 79.8041 42.7197 79.8201C42.7091 79.8254 42.6984 79.8254 42.6931 79.8307C42.379 79.8893 42.1021 80.0597 41.9051 80.3046C41.6336 80.5602 39.4453 82.5408 35.4733 82.5408C31.496 82.5408 29.3131 80.5549 29.0415 80.3046C28.7806 79.9745 28.376 79.7935 27.9553 79.7988C27.9447 79.8041 27.9341 79.8041 27.9287 79.8041C27.5347 79.8148 27.162 79.9958 26.9118 80.3046C26.6402 80.5602 24.4519 82.5408 20.48 82.5408C19.9902 82.5355 19.5323 82.7911 19.282 83.217C19.0371 83.643 19.0371 84.1647 19.282 84.5907C19.5323 85.0166 19.9902 85.2722 20.48 85.2669C24.0846 85.2669 26.6722 83.824 27.9766 82.9029C29.2811 83.824 31.8687 85.2669 35.4733 85.2669C39.0779 85.2669 41.6655 83.824 42.97 82.9029C44.2744 83.824 46.862 85.2669 50.4666 85.2669C54.0712 85.2669 56.6588 83.824 57.9633 82.9029C59.2677 83.824 61.8554 85.2669 65.4599 85.2669C69.0645 85.2669 71.6521 83.824 72.9566 82.9029C74.261 83.824 76.8487 85.2669 80.4532 85.2669C80.9431 85.2722 81.401 85.0166 81.6512 84.5907C81.8961 84.1647 81.8961 83.643 81.6512 83.217C81.401 82.7911 80.9431 82.5355 80.4532 82.5408C76.5611 82.5408 74.4048 80.656 74.0587 80.3312C73.7446 79.9159 73.2175 79.7189 72.7063 79.8201C72.3869 79.8787 72.094 80.049 71.8917 80.3046C71.6202 80.5602 69.4319 82.5408 65.4599 82.5408C61.5678 82.5408 59.4115 80.656 59.0654 80.3312C58.7513 79.9159 58.2242 79.7189 57.713 79.8201C57.7024 79.8254 57.6917 79.8254 57.6864 79.8307C57.3723 79.8893 57.0954 80.0597 56.8984 80.3046C56.6269 80.5602 54.4386 82.5408 50.4666 82.5408C46.5745 82.5408 44.4182 80.656 44.0721 80.3312C43.8059 79.9851 43.3959 79.7882 42.9646 79.7935Z" fill="white" stroke="#164396" stroke-width="2" mask="url(#path-4-inside-1_395_64)"/>
</svg>
