<svg width="106" height="106" viewBox="0 0 106 106" fill="none" xmlns="http://www.w3.org/2000/svg">
<path d="M0 5C0 2.23858 2.23858 0 5 0H76C92.5685 0 106 13.4315 106 30V86C106 97.0457 97.0457 106 86 106H30C13.4315 106 0 92.5685 0 76V5Z" fill="#164396"/>
<mask id="mask0_395_63" style="mask-type:alpha" maskUnits="userSpaceOnUse" x="0" y="0" width="106" height="106">
<path d="M0 5C0 2.23858 2.23858 0 5 0H76C92.5685 0 106 13.4315 106 30V86C106 97.0457 97.0457 106 86 106H30C13.4315 106 0 92.5685 0 76V5Z" fill="#E5E5E5"/>
</mask>
<g mask="url(#mask0_395_63)">
<rect x="103" y="30" width="20" height="47" fill="#00D2A0"/>
</g>
<path d="M60.224 39.945L60.224 39.945C59.0584 41.8163 57.5852 43.7254 56.0401 45.6455C55.5755 46.2229 55.1048 46.8008 54.6336 47.3793C53.5329 48.7308 52.4294 50.0856 51.3945 51.4449C48.4281 55.3411 46.1163 59.1631 46.1163 62.7996C46.1163 70.954 52.7464 77.5884 60.8946 77.5884C69.0489 77.5884 75.6835 70.9537 75.6835 62.7996C75.6835 59.1121 73.361 55.3156 70.3749 51.4459C69.3563 50.1259 68.2716 48.8106 67.1868 47.4953C66.6866 46.8887 66.1864 46.2822 65.6926 45.6752C64.1332 43.7579 62.6437 41.8422 61.4603 39.9448L61.4603 39.9447C61.3273 39.7314 61.0937 39.6018 60.8423 39.6018L60.224 39.945ZM60.224 39.945C60.3568 39.7317 60.5907 39.6019 60.8422 39.6018L60.224 39.945ZM42.1641 25.3666C42.223 25.3691 42.3319 25.3807 42.459 25.423C42.4583 25.4365 42.457 25.4488 42.4551 25.4593C42.4383 25.5067 42.3941 25.5813 42.3702 25.609C42.3225 25.6588 42.2722 25.6811 42.2595 25.6867L42.2594 25.6868C42.2262 25.7015 42.1979 25.7075 42.1918 25.7088L42.1913 25.7089C42.1809 25.7112 42.1725 25.7125 42.1682 25.7131C42.1539 25.7151 42.1431 25.7157 42.1422 25.7158L42.1421 25.7158C42.1369 25.7161 42.1354 25.716 42.1385 25.716C42.1438 25.716 42.1569 25.7163 42.1762 25.7182C42.215 25.7218 42.2731 25.7309 42.3391 25.7521C42.4696 25.7938 42.623 25.879 42.7359 26.06C43.507 27.2963 44.4779 28.5417 45.4913 29.7858C45.7989 30.1634 46.11 30.5405 46.4211 30.9174C47.1396 31.7882 47.8577 32.6584 48.5319 33.5352C50.4725 36.0587 51.9598 38.5279 51.9598 40.9554C51.9598 46.3633 47.5596 50.7635 42.1517 50.7635C36.7477 50.7635 32.3504 46.3635 32.3504 40.9554C32.3504 38.5625 33.8316 36.0757 35.7602 33.5337C36.4453 32.6307 37.176 31.7339 37.9051 30.8391C38.197 30.4808 38.4887 30.1228 38.7771 29.7649C39.7809 28.519 40.7409 27.2784 41.4996 26.0602M42.1641 25.3666L41.4996 26.0602M42.1641 25.3666C42.1363 25.3654 42.1196 25.3662 42.1177 25.3668C42.1176 25.3668 42.1176 25.3668 42.1176 25.3668L42.1641 25.3666ZM41.4996 26.0602C41.4996 26.0603 41.4996 26.0603 41.4996 26.0603L41.2026 25.8753L41.4996 26.0602ZM61.131 42.0945L60.8425 41.6759L60.5545 42.0948C59.3714 43.815 57.9758 45.5716 56.5413 47.3412C56.2833 47.6594 56.024 47.9782 55.7645 48.2972C54.5841 49.7482 53.3996 51.2042 52.3159 52.6425C50.9938 54.3973 49.8113 56.1391 48.9587 57.834C48.1068 59.5274 47.5729 61.1959 47.5729 62.7996C47.5729 70.151 53.5484 76.1317 60.8945 76.1317C68.2462 76.1317 74.2267 70.1513 74.2267 62.7996C74.2267 61.1729 73.6896 59.4975 72.8314 57.8047C71.9725 56.1107 70.7812 54.3784 69.4487 52.634C68.3843 51.2407 67.2228 49.8307 66.062 48.4216C65.7698 48.0669 65.4777 47.7123 65.1872 47.3581C63.7393 45.5925 62.3292 43.8327 61.131 42.0945ZM42.4033 28.1738L42.1183 27.7762L41.834 28.1743C41.0721 29.2409 40.1964 30.3295 39.3054 31.4259C39.2166 31.5353 39.1275 31.6448 39.0384 31.7543C38.2369 32.7397 37.4314 33.7299 36.704 34.7038C35.8959 35.7857 35.175 36.8593 34.6554 37.9002C34.1367 38.9391 33.8071 39.9679 33.8071 40.9554C33.8071 45.5605 37.5498 49.3069 42.1517 49.3069C46.757 49.3069 50.5031 45.5608 50.5031 40.9554C50.5031 39.9536 50.1709 38.9192 49.6472 37.8789C49.1227 36.837 48.3951 35.7674 47.5797 34.6907C46.8637 33.7453 46.0725 32.7848 45.2834 31.8269C45.1738 31.6938 45.0642 31.5608 44.9548 31.4278C44.0558 30.3348 43.1722 29.2467 42.4033 28.1738ZM33.2496 61.897C33.2496 60.3065 34.5441 59.012 36.1346 59.012C37.7251 59.012 39.0197 60.3065 39.0197 61.897C39.0197 63.4875 37.7251 64.782 36.1346 64.782C34.5441 64.782 33.2496 63.4875 33.2496 61.897ZM34.7063 61.897C34.7063 62.6849 35.3467 63.3253 36.1346 63.3253C36.9225 63.3253 37.563 62.6849 37.563 61.897C37.563 61.1091 36.9225 60.4687 36.1346 60.4687C35.3467 60.4687 34.7063 61.1091 34.7063 61.897ZM72.07 39.2518C72.07 37.6613 73.3646 36.3667 74.9551 36.3667C76.5456 36.3667 77.8401 37.6613 77.8401 39.2518C77.8401 40.8422 76.5456 42.1368 74.9551 42.1368C73.3646 42.1368 72.07 40.8422 72.07 39.2518ZM73.5267 39.2518C73.5267 40.0396 74.1672 40.6801 74.9551 40.6801C75.743 40.6801 76.3834 40.0397 76.3834 39.2518C76.3834 38.4639 75.743 37.8234 74.9551 37.8234C74.1672 37.8234 73.5267 38.4639 73.5267 39.2518ZM40.798 71.6021C40.798 70.0116 42.0926 68.7171 43.6831 68.7171C45.2735 68.7171 46.5681 70.0116 46.5681 71.6021C46.5681 73.1926 45.2735 74.4871 43.6831 74.4871C42.0926 74.4871 40.798 73.1926 40.798 71.6021ZM42.2547 71.6021C42.2547 72.39 42.8952 73.0304 43.6831 73.0304C44.4709 73.0304 45.1114 72.39 45.1114 71.6021C45.1114 70.8142 44.471 70.1738 43.6831 70.1738C42.8952 70.1738 42.2547 70.8142 42.2547 71.6021Z" fill="white" stroke="#164396" stroke-width="0.7"/>
</svg>
