<svg width="109" height="107" viewBox="0 0 109 107" fill="none" xmlns="http://www.w3.org/2000/svg">
<path d="M0 6C0 3.23858 2.23858 1 5 1H76C92.5685 1 106 14.4315 106 31V87C106 98.0457 97.0457 107 86 107H30C13.4315 107 0 93.5685 0 77V6Z" fill="#164396"/>
<mask id="mask0_395_66" style="mask-type:alpha" maskUnits="userSpaceOnUse" x="0" y="1" width="106" height="106">
<path d="M0 6C0 3.23858 2.23858 1 5 1H76C92.5685 1 106 14.4315 106 31V87C106 98.0457 97.0457 107 86 107H30C13.4315 107 0 93.5685 0 77V6Z" fill="#E5E5E5"/>
</mask>
<g mask="url(#mask0_395_66)">
<rect x="103" y="31" width="20" height="47" fill="#00D2A0"/>
</g>
<mask id="path-4-inside-1_395_66" fill="white">
<path d="M64.7097 13.3618C60.632 13.3618 56.5553 14.9293 53.4498 18.0652L47.031 24.547L45.4472 22.9477C44.5425 22.034 43.3496 21.5777 42.1561 21.5777C40.9627 21.5777 39.7698 22.034 38.865 22.9477L25.36 36.5851C23.5505 38.4123 23.5505 41.4046 25.36 43.2318L26.9438 44.8311L22.4972 49.3213C16.2863 55.5931 16.2863 65.792 22.4972 72.0638L38.2136 87.9342C44.4245 94.206 54.5244 94.206 60.7353 87.9342L67.2218 81.3841L68.8116 82.9874C70.6211 84.8146 73.5843 84.8146 75.3938 82.9874L88.8988 69.352C90.7083 67.5247 90.7083 64.5305 88.8988 62.7032L87.3091 61.0979L91.6859 56.6781C97.8968 50.4064 97.8977 40.2075 91.6879 33.9357L75.9715 18.0652C72.8661 14.9293 68.7874 13.3618 64.7097 13.3618ZM64.7097 15.4077C67.3836 15.4077 70.0561 16.1866 72.3736 17.7413C71.0538 19.6432 70.2633 21.8056 70.0189 24.0199C70.0041 24.1557 70.0433 24.2918 70.1279 24.3984C70.2125 24.505 70.3356 24.5733 70.4701 24.5882C70.6046 24.6032 70.7394 24.5635 70.8449 24.4781C70.9505 24.3926 71.0181 24.2683 71.0329 24.1326C71.2581 22.092 71.9829 20.1035 73.1944 18.3509C73.6555 18.7119 74.1056 19.094 74.5292 19.5217L78.9538 23.9897L77.7645 25.1907C76.8239 26.1405 76.8239 27.6991 77.7645 28.6489L80.446 31.3566C81.3925 32.3124 82.935 32.3144 83.8725 31.3546L85.0599 30.1556L90.2455 35.3921C90.3764 35.5243 90.4896 35.6666 90.6141 35.8025C85.7437 39.2883 78.9655 38.838 74.5989 34.4285C72.9489 32.7624 71.8573 30.7338 71.3257 28.6066V28.6046L71.3237 28.6006C71.322 28.5937 71.3175 28.5874 71.3158 28.5805V28.5865C71.3059 28.5204 71.2902 28.4098 71.1723 28.2908C71.1248 28.2411 71.0678 28.2017 71.0049 28.1747C70.9419 28.1478 70.8742 28.1339 70.8058 28.1339C70.7267 28.1339 70.6487 28.1524 70.578 28.1881C70.5073 28.2237 70.4457 28.2755 70.3982 28.3393C70.3506 28.4031 70.3185 28.4772 70.3041 28.5557C70.2898 28.6342 70.2938 28.715 70.3157 28.7917L70.3257 28.8319C70.8982 31.1445 72.0871 33.3486 73.8777 35.1568C78.619 39.9445 86.0192 40.4192 91.2914 36.5851C95.6425 42.0948 95.2977 50.118 90.2436 55.2217L75.3838 70.2291L66.2696 61.0255C71.0062 55.9021 70.8459 47.8005 65.8273 42.7329C60.8087 37.6653 52.7877 37.505 47.7143 42.2883L45.1783 39.7274C45.131 39.678 45.0743 39.6387 45.0117 39.6117C44.9491 39.5848 44.8818 39.5708 44.8137 39.5705C44.712 39.5701 44.6124 39.6005 44.5279 39.6577C44.4434 39.7149 44.3777 39.7963 44.3394 39.8914C44.301 39.9866 44.2917 40.0912 44.3127 40.1917C44.3337 40.2923 44.384 40.3842 44.4571 40.4556L46.9971 43.0206C42.3587 48.149 42.5504 56.1712 47.535 61.2045C52.5195 66.2376 60.4639 66.4312 65.5424 61.7477L74.6627 70.9573L59.2929 86.4757C54.1613 91.6576 46.0493 91.9366 40.5883 87.3267C44.9771 81.9854 44.6886 74.0276 39.7257 69.016C37.7087 66.9793 35.2036 65.7222 32.5896 65.2481C32.5562 65.2413 32.5222 65.2379 32.488 65.238C32.3597 65.2382 32.2361 65.2873 32.1419 65.3755C32.0478 65.4637 31.9901 65.5844 31.9803 65.7137C31.9705 65.843 32.0093 65.9712 32.089 66.0728C32.1687 66.1745 32.2835 66.242 32.4103 66.262C34.8271 66.7004 37.1373 67.8587 39.0045 69.7443C43.5901 74.3749 43.8586 81.6973 39.8293 86.6346C39.7727 86.5794 39.7118 86.5321 39.6559 86.4757L33.9643 80.7302L35.4126 79.2677C36.3531 78.3179 36.3531 76.7594 35.4126 75.8096L32.7291 73.0998C32.2559 72.6219 31.635 72.3835 31.0138 72.3836C30.3927 72.3838 29.7713 72.624 29.3025 73.1038L27.8582 74.5623L23.9396 70.6073C23.3781 70.0403 22.8888 69.4305 22.4434 68.7987C24.2363 67.3552 26.329 66.4783 28.4897 66.1795C28.6244 66.1656 28.7482 66.0982 28.8337 65.9922C28.9193 65.8862 28.9596 65.7502 28.9459 65.6142C28.9322 65.4781 28.8655 65.3532 28.7605 65.2668C28.6555 65.1804 28.5209 65.1396 28.3861 65.1535C28.3741 65.1544 28.3622 65.1558 28.3503 65.1575C26.0424 65.4767 23.8049 66.4106 21.8816 67.9377C18.6438 62.543 19.3203 55.4423 23.9396 50.7778L39.3093 35.2574L41.4887 37.4582C41.5357 37.5076 41.592 37.5471 41.6543 37.5742C41.7166 37.6014 41.7836 37.6158 41.8515 37.6165C41.9193 37.6172 41.9866 37.6042 42.0495 37.5783C42.1123 37.5524 42.1693 37.5141 42.2173 37.4657C42.2653 37.4172 42.3032 37.3596 42.3289 37.2961C42.3545 37.2327 42.3674 37.1647 42.3667 37.0962C42.366 37.0277 42.3518 36.96 42.3249 36.8971C42.2979 36.8342 42.2589 36.7774 42.2099 36.7299L40.0305 34.5291L54.8922 19.5217C57.6079 16.7794 61.1583 15.4077 64.7097 15.4077ZM42.1561 23.6256C42.8232 23.6256 43.4898 23.884 44.0049 24.4041L45.4452 25.8586L28.2427 43.2298L26.8043 41.7753C25.7741 40.735 25.7741 39.0819 26.8043 38.0416L40.3074 24.4041C40.8225 23.884 41.4891 23.6256 42.1561 23.6256ZM79.675 24.718L84.3387 29.4274L83.1474 30.6304C82.5957 31.1951 81.7303 31.1971 81.1671 30.6284L78.4857 27.9206C77.937 27.3666 77.937 26.473 78.4857 25.919L79.675 24.718ZM56.5736 39.83C59.6484 39.8559 62.7352 41.0671 65.1061 43.4611C69.741 48.1413 69.8896 55.5752 65.5484 60.2972L61.1975 55.9036C61.1499 55.854 61.0929 55.8145 61.03 55.7876C60.967 55.7606 60.8993 55.7467 60.8309 55.7467C60.7293 55.7467 60.6301 55.7774 60.5458 55.8347C60.4616 55.8921 60.3963 55.9735 60.3582 56.0686C60.3201 56.1637 60.311 56.2681 60.332 56.3685C60.3531 56.4688 60.4033 56.5605 60.4763 56.6319L64.8212 61.0194C60.1406 65.3041 52.8568 65.1218 48.2562 60.4763C43.6554 55.8305 43.4748 48.4754 47.7183 43.7488L56.5337 52.6507C56.5807 52.7001 56.637 52.7396 56.6993 52.7667C56.7616 52.7939 56.8286 52.8083 56.8965 52.809C56.9643 52.8097 57.0316 52.7967 57.0945 52.7708C57.1573 52.7449 57.2143 52.7066 57.2623 52.6581C57.3103 52.6097 57.3482 52.5521 57.3739 52.4886C57.3995 52.4252 57.4124 52.3572 57.4117 52.2887C57.411 52.2202 57.3968 52.1525 57.3699 52.0896C57.3429 52.0267 57.3039 51.9699 57.2549 51.9224L48.4355 43.0166C50.7195 40.8753 53.6375 39.8053 56.5736 39.83ZM86.0161 62.7073L87.4545 64.1617C88.4847 65.202 88.4847 66.8552 87.4545 67.8955L73.9514 81.5309C72.9212 82.5712 71.2841 82.5712 70.2539 81.5309L68.8136 80.0784L86.0161 62.7073ZM31.0158 73.4036C31.3713 73.4037 31.7264 73.5437 32.0079 73.828L34.6914 76.5378C35.24 77.0918 35.24 77.9855 34.6914 78.5395L33.2431 80.002L28.5794 75.2906L30.0277 73.828L30.0297 73.826C30.3055 73.5437 30.6603 73.4034 31.0158 73.4036Z"/>
</mask>
<path d="M64.7097 13.3618C60.632 13.3618 56.5553 14.9293 53.4498 18.0652L47.031 24.547L45.4472 22.9477C44.5425 22.034 43.3496 21.5777 42.1561 21.5777C40.9627 21.5777 39.7698 22.034 38.865 22.9477L25.36 36.5851C23.5505 38.4123 23.5505 41.4046 25.36 43.2318L26.9438 44.8311L22.4972 49.3213C16.2863 55.5931 16.2863 65.792 22.4972 72.0638L38.2136 87.9342C44.4245 94.206 54.5244 94.206 60.7353 87.9342L67.2218 81.3841L68.8116 82.9874C70.6211 84.8146 73.5843 84.8146 75.3938 82.9874L88.8988 69.352C90.7083 67.5247 90.7083 64.5305 88.8988 62.7032L87.3091 61.0979L91.6859 56.6781C97.8968 50.4064 97.8977 40.2075 91.6879 33.9357L75.9715 18.0652C72.8661 14.9293 68.7874 13.3618 64.7097 13.3618ZM64.7097 15.4077C67.3836 15.4077 70.0561 16.1866 72.3736 17.7413C71.0538 19.6432 70.2633 21.8056 70.0189 24.0199C70.0041 24.1557 70.0433 24.2918 70.1279 24.3984C70.2125 24.505 70.3356 24.5733 70.4701 24.5882C70.6046 24.6032 70.7394 24.5635 70.8449 24.4781C70.9505 24.3926 71.0181 24.2683 71.0329 24.1326C71.2581 22.092 71.9829 20.1035 73.1944 18.3509C73.6555 18.7119 74.1056 19.094 74.5292 19.5217L78.9538 23.9897L77.7645 25.1907C76.8239 26.1405 76.8239 27.6991 77.7645 28.6489L80.446 31.3566C81.3925 32.3124 82.935 32.3144 83.8725 31.3546L85.0599 30.1556L90.2455 35.3921C90.3764 35.5243 90.4896 35.6666 90.6141 35.8025C85.7437 39.2883 78.9655 38.838 74.5989 34.4285C72.9489 32.7624 71.8573 30.7338 71.3257 28.6066V28.6046L71.3237 28.6006C71.322 28.5937 71.3175 28.5874 71.3158 28.5805V28.5865C71.3059 28.5204 71.2902 28.4098 71.1723 28.2908C71.1248 28.2411 71.0678 28.2017 71.0049 28.1747C70.9419 28.1478 70.8742 28.1339 70.8058 28.1339C70.7267 28.1339 70.6487 28.1524 70.578 28.1881C70.5073 28.2237 70.4457 28.2755 70.3982 28.3393C70.3506 28.4031 70.3185 28.4772 70.3041 28.5557C70.2898 28.6342 70.2938 28.715 70.3157 28.7917L70.3257 28.8319C70.8982 31.1445 72.0871 33.3486 73.8777 35.1568C78.619 39.9445 86.0192 40.4192 91.2914 36.5851C95.6425 42.0948 95.2977 50.118 90.2436 55.2217L75.3838 70.2291L66.2696 61.0255C71.0062 55.9021 70.8459 47.8005 65.8273 42.7329C60.8087 37.6653 52.7877 37.505 47.7143 42.2883L45.1783 39.7274C45.131 39.678 45.0743 39.6387 45.0117 39.6117C44.9491 39.5848 44.8818 39.5708 44.8137 39.5705C44.712 39.5701 44.6124 39.6005 44.5279 39.6577C44.4434 39.7149 44.3777 39.7963 44.3394 39.8914C44.301 39.9866 44.2917 40.0912 44.3127 40.1917C44.3337 40.2923 44.384 40.3842 44.4571 40.4556L46.9971 43.0206C42.3587 48.149 42.5504 56.1712 47.535 61.2045C52.5195 66.2376 60.4639 66.4312 65.5424 61.7477L74.6627 70.9573L59.2929 86.4757C54.1613 91.6576 46.0493 91.9366 40.5883 87.3267C44.9771 81.9854 44.6886 74.0276 39.7257 69.016C37.7087 66.9793 35.2036 65.7222 32.5896 65.2481C32.5562 65.2413 32.5222 65.2379 32.488 65.238C32.3597 65.2382 32.2361 65.2873 32.1419 65.3755C32.0478 65.4637 31.9901 65.5844 31.9803 65.7137C31.9705 65.843 32.0093 65.9712 32.089 66.0728C32.1687 66.1745 32.2835 66.242 32.4103 66.262C34.8271 66.7004 37.1373 67.8587 39.0045 69.7443C43.5901 74.3749 43.8586 81.6973 39.8293 86.6346C39.7727 86.5794 39.7118 86.5321 39.6559 86.4757L33.9643 80.7302L35.4126 79.2677C36.3531 78.3179 36.3531 76.7594 35.4126 75.8096L32.7291 73.0998C32.2559 72.6219 31.635 72.3835 31.0138 72.3836C30.3927 72.3838 29.7713 72.624 29.3025 73.1038L27.8582 74.5623L23.9396 70.6073C23.3781 70.0403 22.8888 69.4305 22.4434 68.7987C24.2363 67.3552 26.329 66.4783 28.4897 66.1795C28.6244 66.1656 28.7482 66.0982 28.8337 65.9922C28.9193 65.8862 28.9596 65.7502 28.9459 65.6142C28.9322 65.4781 28.8655 65.3532 28.7605 65.2668C28.6555 65.1804 28.5209 65.1396 28.3861 65.1535C28.3741 65.1544 28.3622 65.1558 28.3503 65.1575C26.0424 65.4767 23.8049 66.4106 21.8816 67.9377C18.6438 62.543 19.3203 55.4423 23.9396 50.7778L39.3093 35.2574L41.4887 37.4582C41.5357 37.5076 41.592 37.5471 41.6543 37.5742C41.7166 37.6014 41.7836 37.6158 41.8515 37.6165C41.9193 37.6172 41.9866 37.6042 42.0495 37.5783C42.1123 37.5524 42.1693 37.5141 42.2173 37.4657C42.2653 37.4172 42.3032 37.3596 42.3289 37.2961C42.3545 37.2327 42.3674 37.1647 42.3667 37.0962C42.366 37.0277 42.3518 36.96 42.3249 36.8971C42.2979 36.8342 42.2589 36.7774 42.2099 36.7299L40.0305 34.5291L54.8922 19.5217C57.6079 16.7794 61.1583 15.4077 64.7097 15.4077ZM42.1561 23.6256C42.8232 23.6256 43.4898 23.884 44.0049 24.4041L45.4452 25.8586L28.2427 43.2298L26.8043 41.7753C25.7741 40.735 25.7741 39.0819 26.8043 38.0416L40.3074 24.4041C40.8225 23.884 41.4891 23.6256 42.1561 23.6256ZM79.675 24.718L84.3387 29.4274L83.1474 30.6304C82.5957 31.1951 81.7303 31.1971 81.1671 30.6284L78.4857 27.9206C77.937 27.3666 77.937 26.473 78.4857 25.919L79.675 24.718ZM56.5736 39.83C59.6484 39.8559 62.7352 41.0671 65.1061 43.4611C69.741 48.1413 69.8896 55.5752 65.5484 60.2972L61.1975 55.9036C61.1499 55.854 61.0929 55.8145 61.03 55.7876C60.967 55.7606 60.8993 55.7467 60.8309 55.7467C60.7293 55.7467 60.6301 55.7774 60.5458 55.8347C60.4616 55.8921 60.3963 55.9735 60.3582 56.0686C60.3201 56.1637 60.311 56.2681 60.332 56.3685C60.3531 56.4688 60.4033 56.5605 60.4763 56.6319L64.8212 61.0194C60.1406 65.3041 52.8568 65.1218 48.2562 60.4763C43.6554 55.8305 43.4748 48.4754 47.7183 43.7488L56.5337 52.6507C56.5807 52.7001 56.637 52.7396 56.6993 52.7667C56.7616 52.7939 56.8286 52.8083 56.8965 52.809C56.9643 52.8097 57.0316 52.7967 57.0945 52.7708C57.1573 52.7449 57.2143 52.7066 57.2623 52.6581C57.3103 52.6097 57.3482 52.5521 57.3739 52.4886C57.3995 52.4252 57.4124 52.3572 57.4117 52.2887C57.411 52.2202 57.3968 52.1525 57.3699 52.0896C57.3429 52.0267 57.3039 51.9699 57.2549 51.9224L48.4355 43.0166C50.7195 40.8753 53.6375 39.8053 56.5736 39.83ZM86.0161 62.7073L87.4545 64.1617C88.4847 65.202 88.4847 66.8552 87.4545 67.8955L73.9514 81.5309C72.9212 82.5712 71.2841 82.5712 70.2539 81.5309L68.8136 80.0784L86.0161 62.7073ZM31.0158 73.4036C31.3713 73.4037 31.7264 73.5437 32.0079 73.828L34.6914 76.5378C35.24 77.0918 35.24 77.9855 34.6914 78.5395L33.2431 80.002L28.5794 75.2906L30.0277 73.828L30.0297 73.826C30.3055 73.5437 30.6603 73.4034 31.0158 73.4036Z" fill="white" stroke="#164396" stroke-width="0.8" mask="url(#path-4-inside-1_395_66)"/>
</svg>
