<svg width="106" height="106" viewBox="0 0 106 106" fill="none" xmlns="http://www.w3.org/2000/svg">
<path d="M0 5C0 2.23858 2.23858 0 5 0H76C92.5685 0 106 13.4315 106 30V86C106 97.0457 97.0457 106 86 106H30C13.4315 106 0 92.5685 0 76V5Z" fill="#164596"/>
<mask id="mask0_414_70" style="mask-type:alpha" maskUnits="userSpaceOnUse" x="0" y="0" width="106" height="106">
<path d="M0 5C0 2.23858 2.23858 0 5 0H76C92.5685 0 106 13.4315 106 30V86C106 97.0457 97.0457 106 86 106H30C13.4315 106 0 92.5685 0 76V5Z" fill="#E5E5E5"/>
</mask>
<g mask="url(#mask0_414_70)">
<rect x="103" y="30" width="20" height="47" fill="#00D2A0"/>
</g>
<mask id="path-4-inside-1_414_70" fill="white">
<path d="M34.2734 84.8538C34.315 84.8789 34.3599 84.905 34.4063 84.9239C36.8283 85.9558 39.0142 85.2863 41.1274 84.6395L41.6388 84.4839C44.7255 83.5565 47.3814 81.0351 49.1163 77.3877C50.0613 75.3986 50.6851 73.2798 51.2873 71.2284C51.5957 70.1783 51.915 69.0921 52.2707 68.0537C53.5198 64.3969 55.0751 61.9962 57.1646 60.501C59.5317 58.8052 62.9623 58.67 65.7026 60.1647C68.4797 61.6795 71.2191 59.3622 72.8724 56.666C72.8917 56.6424 72.9073 56.617 72.9228 56.5901L76.8045 49.8668C76.9496 49.6155 76.9598 49.3298 76.8733 49.0748L86.192 37.0558C86.2189 37.0209 86.2438 36.9851 86.2656 36.9473C87.4946 34.8185 86.5494 31.9636 84.158 30.583L56.3277 14.5151C53.9245 13.1276 50.9669 13.7399 49.732 15.8787C49.7107 15.9157 49.6913 15.9547 49.6742 15.9941L43.9622 29.9292C43.6143 29.9166 43.2726 30.078 43.0868 30.3998L39.2051 37.1232C39.1896 37.15 39.175 37.1771 39.162 37.2055C37.6536 39.9854 37.0183 43.5153 39.7179 45.1624C42.3825 46.7882 43.9802 49.8276 43.6947 52.7263C43.4437 55.283 42.1432 57.8286 39.6018 60.7393C38.879 61.5669 38.098 62.3865 37.3441 63.1783C35.8686 64.7255 34.3446 66.3267 33.0945 68.1397C30.8032 71.4659 29.949 75.0242 30.6887 78.1619C31.3284 80.8754 32.2064 83.5652 34.2734 84.8538ZM35.2382 83.1675C33.8082 82.222 33.0943 79.8879 32.5829 77.7213C31.7558 74.2172 33.5533 70.9058 34.6978 69.2448C35.8599 67.557 37.2675 66.0819 38.7555 64.5206C39.5246 63.7141 40.3205 62.8795 41.0704 62.0205C43.8898 58.7919 45.3394 55.901 45.6314 52.923C45.9888 49.2983 44.0179 45.5147 40.7276 43.5086C38.6847 42.2619 40.6701 38.5062 40.9038 38.082C40.912 38.0677 40.9189 38.0539 40.9258 38.04L44.2891 32.2146L44.3797 32.2668L74.5659 49.6949L74.6334 49.7339L72.2074 53.9359L49.8694 41.0391C49.6367 40.9047 49.3392 40.984 49.2053 41.2159C49.0714 41.4479 49.1515 41.7452 49.3842 41.8795L71.7222 54.7763L71.2711 55.5577C71.2625 55.5706 71.254 55.5835 71.2457 55.5977C70.9952 56.0122 68.7336 59.6085 66.6326 58.4627C63.2496 56.6171 58.99 56.8034 56.0292 58.924C53.5957 60.6667 51.817 63.3675 50.4301 67.4243C50.0615 68.5046 49.7346 69.6089 49.4207 70.6782C48.8122 72.7483 48.2391 74.7019 47.3593 76.5527C46.4926 78.3752 44.5223 81.5879 41.0749 82.6242L40.5548 82.7835C38.6395 83.3697 36.9801 83.8763 35.2382 83.1675ZM38.5963 77.1115C39.5261 77.6483 40.7174 77.331 41.2526 76.404L44.1639 71.3615C44.6991 70.4345 44.3782 69.2442 43.4484 68.7074C42.5187 68.1705 41.3273 68.4879 40.7921 69.4148L37.8809 74.4573C37.3457 75.3843 37.6666 76.5747 38.5963 77.1115ZM39.0815 76.2711C38.6171 76.0029 38.4565 75.407 38.7238 74.944L41.6351 69.9015C41.9024 69.4384 42.4988 69.2796 42.9632 69.5478C43.4277 69.8159 43.5883 70.4118 43.321 70.8748L40.4097 75.9173C40.1423 76.3804 39.546 76.5392 39.0815 76.2711ZM46.8553 40.4195C47.088 40.5538 47.3855 40.4745 47.5194 40.2426C47.6533 40.0106 47.5732 39.7134 47.3405 39.5791L45.6547 38.6057C45.422 38.4714 45.1245 38.5506 44.9906 38.7826C44.8567 39.0145 44.9368 39.3118 45.1694 39.4461L46.8553 40.4195ZM43.5598 38.508C43.6694 38.5713 43.8008 38.5939 43.927 38.5602C43.9801 38.5461 44.0427 38.5148 44.0886 38.4741C44.143 38.4383 44.1812 38.3937 44.2151 38.3349C44.2782 38.2256 44.2984 38.0921 44.2662 37.9726C44.2305 37.8399 44.1543 37.7395 44.0363 37.6713C43.9267 37.6081 43.793 37.5873 43.6686 37.6276C43.607 37.6369 43.5515 37.6722 43.497 37.708C43.4426 37.7438 43.4013 37.7978 43.3722 37.8482C43.3091 37.9575 43.2971 38.0958 43.3293 38.2152C43.3633 38.3413 43.4502 38.4448 43.5598 38.508ZM75.3256 47.8924L45.7123 30.7951L51.4482 16.7995C52.1672 15.6302 53.9058 15.3558 55.3582 16.1943L57.3635 17.3521L53.2392 24.4956C53.1053 24.7275 53.1854 25.0248 53.4181 25.1591C53.6507 25.2934 53.9482 25.2142 54.0821 24.9822L58.2064 17.8387L64.95 21.7321L59.37 31.3969C59.2361 31.6288 59.3163 31.9261 59.5489 32.0604C59.7816 32.1947 60.0791 32.1155 60.213 31.8835L65.7929 22.2188L72.5365 26.1122L66.9565 35.7769C66.8226 36.0089 66.9028 36.3061 67.1354 36.4405C67.3681 36.5748 67.6656 36.4956 67.7995 36.2636L73.3794 26.5989L80.123 30.4922L75.9987 37.6358C75.8647 37.8677 75.9449 38.165 76.1775 38.2993C76.4102 38.4336 76.7077 38.3544 76.8416 38.1224L80.9659 30.9789L83.1885 32.2621C84.6291 33.0939 85.2554 34.7219 84.6084 35.9205L75.3256 47.8924Z"/>
</mask>
<path d="M34.2734 84.8538C34.315 84.8789 34.3599 84.905 34.4063 84.9239C36.8283 85.9558 39.0142 85.2863 41.1274 84.6395L41.6388 84.4839C44.7255 83.5565 47.3814 81.0351 49.1163 77.3877C50.0613 75.3986 50.6851 73.2798 51.2873 71.2284C51.5957 70.1783 51.915 69.0921 52.2707 68.0537C53.5198 64.3969 55.0751 61.9962 57.1646 60.501C59.5317 58.8052 62.9623 58.67 65.7026 60.1647C68.4797 61.6795 71.2191 59.3622 72.8724 56.666C72.8917 56.6424 72.9073 56.617 72.9228 56.5901L76.8045 49.8668C76.9496 49.6155 76.9598 49.3298 76.8733 49.0748L86.192 37.0558C86.2189 37.0209 86.2438 36.9851 86.2656 36.9473C87.4946 34.8185 86.5494 31.9636 84.158 30.583L56.3277 14.5151C53.9245 13.1276 50.9669 13.7399 49.732 15.8787C49.7107 15.9157 49.6913 15.9547 49.6742 15.9941L43.9622 29.9292C43.6143 29.9166 43.2726 30.078 43.0868 30.3998L39.2051 37.1232C39.1896 37.15 39.175 37.1771 39.162 37.2055C37.6536 39.9854 37.0183 43.5153 39.7179 45.1624C42.3825 46.7882 43.9802 49.8276 43.6947 52.7263C43.4437 55.283 42.1432 57.8286 39.6018 60.7393C38.879 61.5669 38.098 62.3865 37.3441 63.1783C35.8686 64.7255 34.3446 66.3267 33.0945 68.1397C30.8032 71.4659 29.949 75.0242 30.6887 78.1619C31.3284 80.8754 32.2064 83.5652 34.2734 84.8538ZM35.2382 83.1675C33.8082 82.222 33.0943 79.8879 32.5829 77.7213C31.7558 74.2172 33.5533 70.9058 34.6978 69.2448C35.8599 67.557 37.2675 66.0819 38.7555 64.5206C39.5246 63.7141 40.3205 62.8795 41.0704 62.0205C43.8898 58.7919 45.3394 55.901 45.6314 52.923C45.9888 49.2983 44.0179 45.5147 40.7276 43.5086C38.6847 42.2619 40.6701 38.5062 40.9038 38.082C40.912 38.0677 40.9189 38.0539 40.9258 38.04L44.2891 32.2146L44.3797 32.2668L74.5659 49.6949L74.6334 49.7339L72.2074 53.9359L49.8694 41.0391C49.6367 40.9047 49.3392 40.984 49.2053 41.2159C49.0714 41.4479 49.1515 41.7452 49.3842 41.8795L71.7222 54.7763L71.2711 55.5577C71.2625 55.5706 71.254 55.5835 71.2457 55.5977C70.9952 56.0122 68.7336 59.6085 66.6326 58.4627C63.2496 56.6171 58.99 56.8034 56.0292 58.924C53.5957 60.6667 51.817 63.3675 50.4301 67.4243C50.0615 68.5046 49.7346 69.6089 49.4207 70.6782C48.8122 72.7483 48.2391 74.7019 47.3593 76.5527C46.4926 78.3752 44.5223 81.5879 41.0749 82.6242L40.5548 82.7835C38.6395 83.3697 36.9801 83.8763 35.2382 83.1675ZM38.5963 77.1115C39.5261 77.6483 40.7174 77.331 41.2526 76.404L44.1639 71.3615C44.6991 70.4345 44.3782 69.2442 43.4484 68.7074C42.5187 68.1705 41.3273 68.4879 40.7921 69.4148L37.8809 74.4573C37.3457 75.3843 37.6666 76.5747 38.5963 77.1115ZM39.0815 76.2711C38.6171 76.0029 38.4565 75.407 38.7238 74.944L41.6351 69.9015C41.9024 69.4384 42.4988 69.2796 42.9632 69.5478C43.4277 69.8159 43.5883 70.4118 43.321 70.8748L40.4097 75.9173C40.1423 76.3804 39.546 76.5392 39.0815 76.2711ZM46.8553 40.4195C47.088 40.5538 47.3855 40.4745 47.5194 40.2426C47.6533 40.0106 47.5732 39.7134 47.3405 39.5791L45.6547 38.6057C45.422 38.4714 45.1245 38.5506 44.9906 38.7826C44.8567 39.0145 44.9368 39.3118 45.1694 39.4461L46.8553 40.4195ZM43.5598 38.508C43.6694 38.5713 43.8008 38.5939 43.927 38.5602C43.9801 38.5461 44.0427 38.5148 44.0886 38.4741C44.143 38.4383 44.1812 38.3937 44.2151 38.3349C44.2782 38.2256 44.2984 38.0921 44.2662 37.9726C44.2305 37.8399 44.1543 37.7395 44.0363 37.6713C43.9267 37.6081 43.793 37.5873 43.6686 37.6276C43.607 37.6369 43.5515 37.6722 43.497 37.708C43.4426 37.7438 43.4013 37.7978 43.3722 37.8482C43.3091 37.9575 43.2971 38.0958 43.3293 38.2152C43.3633 38.3413 43.4502 38.4448 43.5598 38.508ZM75.3256 47.8924L45.7123 30.7951L51.4482 16.7995C52.1672 15.6302 53.9058 15.3558 55.3582 16.1943L57.3635 17.3521L53.2392 24.4956C53.1053 24.7275 53.1854 25.0248 53.4181 25.1591C53.6507 25.2934 53.9482 25.2142 54.0821 24.9822L58.2064 17.8387L64.95 21.7321L59.37 31.3969C59.2361 31.6288 59.3163 31.9261 59.5489 32.0604C59.7816 32.1947 60.0791 32.1155 60.213 31.8835L65.7929 22.2188L72.5365 26.1122L66.9565 35.7769C66.8226 36.0089 66.9028 36.3061 67.1354 36.4405C67.3681 36.5748 67.6656 36.4956 67.7995 36.2636L73.3794 26.5989L80.123 30.4922L75.9987 37.6358C75.8647 37.8677 75.9449 38.165 76.1775 38.2993C76.4102 38.4336 76.7077 38.3544 76.8416 38.1224L80.9659 30.9789L83.1885 32.2621C84.6291 33.0939 85.2554 34.7219 84.6084 35.9205L75.3256 47.8924Z" fill="white" stroke="#164596" stroke-width="1.4" mask="url(#path-4-inside-1_414_70)"/>
</svg>
