<svg width="106" height="106" viewBox="0 0 106 106" fill="none" xmlns="http://www.w3.org/2000/svg">
<path d="M0 5C0 2.23858 2.23858 0 5 0H76C92.5685 0 106 13.4315 106 30V86C106 97.0457 97.0457 106 86 106H30C13.4315 106 0 92.5685 0 76V5Z" fill="#164396"/>
<mask id="mask0_395_60" style="mask-type:alpha" maskUnits="userSpaceOnUse" x="0" y="0" width="106" height="106">
<path d="M0 5C0 2.23858 2.23858 0 5 0H76C92.5685 0 106 13.4315 106 30V86C106 97.0457 97.0457 106 86 106H30C13.4315 106 0 92.5685 0 76V5Z" fill="#E5E5E5"/>
</mask>
<g mask="url(#mask0_395_60)">
<rect x="103" y="30" width="20" height="47" fill="#00D2A0"/>
</g>
<g clip-path="url(#clip0_395_60)">
<path d="M77.4784 50.2661L77.1753 50.0911L77.0003 50.3942L74.0185 55.5589C73.4629 56.5212 72.2004 56.8595 71.238 56.3039L30.9538 33.0458C29.9914 32.4901 29.6531 31.2277 30.2087 30.2653L37.3651 17.8701C37.9207 16.9078 39.1832 16.5695 40.1456 17.1251L80.4298 40.3832C81.3922 40.9389 81.7305 42.2013 81.1748 43.1637L78.193 48.3284L78.018 48.6315L78.3211 48.8065L80.387 49.9992C80.7885 50.231 80.9273 50.7489 80.6955 51.1504L74.1363 62.5111C73.9373 62.8481 73.5316 63.0045 73.1594 62.8886C73.1591 62.8885 73.1587 62.8884 73.1584 62.8883L47.3213 54.6417L47.0527 54.556L46.9117 54.8002L45.0108 58.0926L44.8358 58.3957L45.1389 58.5707L47.2048 59.7635C48.1672 60.3191 48.5054 61.5816 47.9498 62.5439L38.408 79.0708C37.8524 80.0332 36.5899 80.3715 35.6276 79.8158L29.43 76.2377C28.4676 75.6821 28.1293 74.4196 28.6849 73.4572L38.2267 56.9303C38.7824 55.968 40.0449 55.6297 41.0072 56.1853L43.0731 57.378L43.3762 57.553L43.5512 57.2499L45.9359 53.1195C46.1349 52.7826 46.5406 52.6263 46.9128 52.7422C46.9131 52.7423 46.9134 52.7424 46.9138 52.7425L72.7508 60.9891L73.0194 61.0748L73.1604 60.8306L78.6395 51.3406L78.8145 51.0375L78.5113 50.8625L77.4784 50.2661ZM39.3028 18.5847L38.9997 18.4097L38.8247 18.7129L31.6684 31.108L31.4934 31.4111L31.7965 31.5861L72.0807 54.8443L72.3839 55.0193L72.5589 54.7161L75.9693 48.8091L75.995 48.7646L76.0068 48.7146C76.047 48.5446 76.1332 48.3953 76.2603 48.2755L76.2977 48.2403L76.3234 48.1958L79.7152 42.321L79.8902 42.0179L79.5871 41.8429L39.3028 18.5847ZM40.1645 57.6449L39.8614 57.4699L39.6864 57.7731L30.1446 74.2999L29.9696 74.603L30.2727 74.778L36.4703 78.3562L36.7734 78.5312L36.9484 78.2281L46.4902 61.7012L46.6652 61.3981L46.3621 61.2231L40.1645 57.6449Z" fill="white" stroke="#164396" stroke-width="0.7"/>
</g>
<defs>
<clipPath id="clip0_395_60">
<rect width="59.6362" height="59.6362" fill="white" transform="translate(37.8181 14) rotate(30)"/>
</clipPath>
</defs>
</svg>
