<svg width="106" height="106" viewBox="0 0 106 106" fill="none" xmlns="http://www.w3.org/2000/svg">
<path d="M0 5C0 2.23858 2.23858 0 5 0H76C92.5685 0 106 13.4315 106 30V86C106 97.0457 97.0457 106 86 106H30C13.4315 106 0 92.5685 0 76V5Z" fill="#164396"/>
<mask id="mask0_395_61" style="mask-type:alpha" maskUnits="userSpaceOnUse" x="0" y="0" width="106" height="106">
<path d="M0 5C0 2.23858 2.23858 0 5 0H76C92.5685 0 106 13.4315 106 30V86C106 97.0457 97.0457 106 86 106H30C13.4315 106 0 92.5685 0 76V5Z" fill="#E5E5E5"/>
</mask>
<g mask="url(#mask0_395_61)">
<rect x="103" y="30" width="20" height="47" fill="#00D2A0"/>
</g>
<path d="M84.1014 22.6274V22.1274H83.6014H63.2419V19.9183H86.3105V86.3105H19.9183V19.9183H43.8562L56.586 29.4656L55.2611 31.235L43.251 22.2274L43.1177 22.1274H42.951H22.6274H22.1274V22.6274V83.6014V84.1014H22.6274H48.3007H48.8007V83.6014V57.9281V57.4281H48.3007H37.5686V55.219H62.2419V57.4281H51.5098H51.0098V57.9281V83.6014V84.1014H51.5098H83.6014H84.1014V83.6014V57.9281V57.4281H83.6014H72.8693V55.219H83.6014H84.1014V54.719V22.6274Z" fill="white" stroke="#164396"/>
</svg>
