<svg width="106" height="106" viewBox="0 0 106 106" fill="none" xmlns="http://www.w3.org/2000/svg">
<path d="M0 5C0 2.23858 2.23858 0 5 0H76C92.5685 0 106 13.4315 106 30V86C106 97.0457 97.0457 106 86 106H30C13.4315 106 0 92.5685 0 76V5Z" fill="#164396"/>
<mask id="mask0_395_62" style="mask-type:alpha" maskUnits="userSpaceOnUse" x="0" y="0" width="106" height="106">
<path d="M0 5C0 2.23858 2.23858 0 5 0H76C92.5685 0 106 13.4315 106 30V86C106 97.0457 97.0457 106 86 106H30C13.4315 106 0 92.5685 0 76V5Z" fill="#E5E5E5"/>
</mask>
<g mask="url(#mask0_395_62)">
<rect x="103" y="30" width="20" height="47" fill="#00D2A0"/>
</g>
<mask id="path-4-inside-1_395_62" fill="white">
<path d="M35.0073 24.075C30.9358 24.075 28.1699 25.7093 25.4948 27.2901C23.0602 28.7283 20.7604 30.0864 17.5375 30.0864C16.8157 30.0864 16.23 30.6708 16.23 31.3938V59.3977V88.1421C16.23 88.8652 16.8157 89.4496 17.5375 89.4496C20.597 89.4496 23.2562 87.9725 25.8268 86.5461C28.5477 85.0346 31.3637 83.474 34.8286 83.474C39.1812 83.474 41.9356 85.1046 44.6016 86.6814C47.01 88.1053 49.2838 89.4496 52.3878 89.4496C56.0069 89.4496 58.6371 87.9701 61.1802 86.541C63.8605 85.0321 66.6331 83.474 70.851 83.474C73.415 83.474 76.0775 84.8545 78.8952 86.3162C81.8684 87.8565 84.9414 89.4496 88.1421 89.4496C88.8639 89.4496 89.4496 88.8652 89.4496 88.1421V59.3977V31.3938C89.4496 31.0461 89.3111 30.7152 89.0666 30.4694C88.8221 30.2236 88.4886 30.0864 88.1421 30.0864C85.199 30.0864 83.3256 28.9514 81.1552 27.6374C78.3977 25.9664 75.2727 24.075 69.5001 24.075C65.4351 24.075 62.9377 25.7912 60.7333 27.3079C58.5916 28.7802 56.745 30.0532 53.5599 30.0532C50.4442 30.0532 48.2528 28.8274 45.7175 27.4101C42.9221 25.8463 39.7509 24.075 35.0073 24.075ZM35.0073 26.6899C39.071 26.6899 41.6805 28.1476 44.4432 29.6931C45.0525 30.0337 45.6706 30.373 46.3023 30.6992V33.2274C46.3023 33.9504 46.8881 34.5349 47.6098 34.5349C48.3316 34.5349 48.9173 33.9504 48.9173 33.2274V31.8484C50.3006 32.337 51.8114 32.6656 53.5599 32.6656C54.7569 32.6656 55.8051 32.501 56.7623 32.2468V41.0724C56.7623 41.7954 57.348 42.3799 58.0698 42.3799C58.7915 42.3799 59.3773 41.7954 59.3773 41.0724V31.2304C60.4202 30.688 61.3455 30.0603 62.217 29.4607C64.2907 28.0355 66.2484 26.6899 69.5001 26.6899C74.5418 26.6899 77.2155 28.308 79.8017 29.8744C81.8127 31.0904 83.8849 32.3459 86.8372 32.6375V57.9549C84.6974 57.5634 82.4754 56.3098 80.1439 54.9824C77.1629 53.2865 74.0792 51.5323 70.851 51.5323C65.9192 51.5323 62.6974 53.5213 59.8523 55.2786C57.4059 56.7874 55.293 58.0902 52.3878 58.0902C50.0291 58.0902 48.1536 56.8719 45.9806 55.4625C43.1433 53.6202 39.9265 51.5323 34.8286 51.5323C30.6577 51.5323 27.3933 53.5201 24.5116 55.276C22.5793 56.4523 20.7335 57.5634 18.845 57.9421V32.6401C20.3021 32.503 21.5824 32.1364 22.7674 31.6569V35.8424C22.7674 36.5654 23.3532 37.1499 24.0749 37.1499C24.7967 37.1499 25.3824 36.5654 25.3824 35.8424V30.6124C25.3824 30.5361 25.3515 30.4706 25.339 30.3979C25.8402 30.1165 26.335 29.8309 26.8227 29.5424C29.3057 28.0767 31.6497 26.6899 35.0073 26.6899ZM80.2972 31.9199C79.5741 31.9199 78.9897 32.5044 78.9897 33.2274C78.9897 33.9504 79.5741 34.5349 80.2972 34.5349H82.9121C83.6352 34.5349 84.2196 33.9504 84.2196 33.2274C84.2196 32.5044 83.6352 31.9199 82.9121 31.9199H80.2972ZM47.6098 37.1499C46.8881 37.1499 46.3023 37.7343 46.3023 38.4574V44.9948C46.3023 45.7179 46.8881 46.3023 47.6098 46.3023C48.3316 46.3023 48.9173 45.7179 48.9173 44.9948V38.4574C48.9173 37.7343 48.3316 37.1499 47.6098 37.1499ZM80.2972 38.4574C79.5741 38.4574 78.9897 39.0418 78.9897 39.7649C78.9897 40.4879 79.5741 41.0724 80.2972 41.0724H82.9121C83.6352 41.0724 84.2196 40.4879 84.2196 39.7649C84.2196 39.0418 83.6352 38.4574 82.9121 38.4574H80.2972ZM24.0749 39.7649C23.3532 39.7649 22.7674 40.3493 22.7674 41.0724V51.5323C22.7674 52.2554 23.3532 52.8398 24.0749 52.8398C24.7967 52.8398 25.3824 52.2554 25.3824 51.5323V41.0724C25.3824 40.3493 24.7967 39.7649 24.0749 39.7649ZM58.0698 44.9948C57.348 44.9948 56.7623 45.5793 56.7623 46.3023V51.5323C56.7623 52.2554 57.348 52.8398 58.0698 52.8398C58.7915 52.8398 59.3773 52.2554 59.3773 51.5323V46.3023C59.3773 45.5793 58.7915 44.9948 58.0698 44.9948ZM80.2972 44.9948C79.5741 44.9948 78.9897 45.5793 78.9897 46.3023C78.9897 47.0254 79.5741 47.6098 80.2972 47.6098H82.9121C83.6352 47.6098 84.2196 47.0254 84.2196 46.3023C84.2196 45.5793 83.6352 44.9948 82.9121 44.9948H80.2972ZM47.6098 48.9173C46.8881 48.9173 46.3023 49.5018 46.3023 50.2248V52.8398C46.3023 53.5629 46.8881 54.1473 47.6098 54.1473C48.3316 54.1473 48.9173 53.5629 48.9173 52.8398V50.2248C48.9173 49.5018 48.3316 48.9173 47.6098 48.9173ZM80.2972 51.5323C79.5741 51.5323 78.9897 52.1168 78.9897 52.8398C78.9897 53.5629 79.5741 54.1473 80.2972 54.1473H82.9121C83.6352 54.1473 84.2196 53.5629 84.2196 52.8398C84.2196 52.1168 83.6352 51.5323 82.9121 51.5323H80.2972ZM34.8286 54.1473C39.1511 54.1473 41.8988 55.9315 44.5556 57.6561C46.8659 59.1545 49.255 60.7052 52.3878 60.7052C56.0357 60.7052 58.6752 59.0758 61.2261 57.5003C63.8974 55.8529 66.6605 54.1473 70.851 54.1473C73.3876 54.1473 76.0407 55.6561 78.8492 57.2551C81.4258 58.7209 84.0804 60.2255 86.8372 60.6082V86.7197C84.6772 86.3628 82.4436 85.2058 80.1005 83.9898C77.1273 82.4496 74.0518 80.8564 70.851 80.8564C65.9479 80.8564 62.7342 82.6654 59.8982 84.2605C59.7202 84.3608 59.5522 84.4486 59.3773 84.5465V78.9897C59.3773 78.2666 58.7915 77.6822 58.0698 77.6822C57.348 77.6822 56.7623 78.2666 56.7623 78.9897V85.5271C56.7623 85.637 56.7981 85.7342 56.8236 85.8361C55.4672 86.4254 54.0629 86.8346 52.3903 86.8346C51.1315 86.8346 50.0133 86.5146 48.9173 86.0328V75.0672C48.9173 74.3442 48.3316 73.7597 47.6098 73.7597C46.8881 73.7597 46.3023 74.3442 46.3023 75.0672V84.641C46.1783 84.5679 46.0605 84.5035 45.9346 84.4291C43.1052 82.7555 39.8964 80.859 34.8286 80.859C31.0686 80.859 28.0573 82.3491 25.3824 83.8162V80.2972C25.3824 79.5741 24.7967 78.9897 24.0749 78.9897C23.3532 78.9897 22.7674 79.5741 22.7674 80.2972V85.2233C21.455 85.9037 20.1613 86.4777 18.845 86.7146V60.6031C21.3904 60.232 23.6647 58.8531 25.8727 57.508C28.5871 55.8566 31.3925 54.1473 34.8286 54.1473ZM47.6098 60.6848C46.8881 60.6848 46.3023 61.2692 46.3023 61.9923V69.8372C46.3023 70.5603 46.8881 71.1447 47.6098 71.1447C48.3316 71.1447 48.9173 70.5603 48.9173 69.8372V61.9923C48.9173 61.2692 48.3316 60.6848 47.6098 60.6848ZM80.2972 60.6848C79.5741 60.6848 78.9897 61.2692 78.9897 61.9923C78.9897 62.7153 79.5741 63.2998 80.2972 63.2998H82.9121C83.6352 63.2998 84.2196 62.7153 84.2196 61.9923C84.2196 61.2692 83.6352 60.6848 82.9121 60.6848H80.2972ZM24.0749 61.9923C23.3532 61.9923 22.7674 62.5767 22.7674 63.2998V75.0672C22.7674 75.7902 23.3532 76.3747 24.0749 76.3747C24.7967 76.3747 25.3824 75.7902 25.3824 75.0672V63.2998C25.3824 62.5767 24.7967 61.9923 24.0749 61.9923ZM58.0698 61.9923C57.348 61.9923 56.7623 62.5767 56.7623 63.2998V73.7597C56.7623 74.4827 57.348 75.0672 58.0698 75.0672C58.7915 75.0672 59.3773 74.4827 59.3773 73.7597V63.2998C59.3773 62.5767 58.7915 61.9923 58.0698 61.9923ZM80.2972 67.2222C79.5741 67.2222 78.9897 67.8067 78.9897 68.5297C78.9897 69.2528 79.5741 69.8372 80.2972 69.8372H82.9121C83.6352 69.8372 84.2196 69.2528 84.2196 68.5297C84.2196 67.8067 83.6352 67.2222 82.9121 67.2222H80.2972ZM80.2972 73.7597C79.5741 73.7597 78.9897 74.3442 78.9897 75.0672C78.9897 75.7902 79.5741 76.3747 80.2972 76.3747H82.9121C83.6352 76.3747 84.2196 75.7902 84.2196 75.0672C84.2196 74.3442 83.6352 73.7597 82.9121 73.7597H80.2972ZM80.2972 80.2972C79.5741 80.2972 78.9897 80.8816 78.9897 81.6047C78.9897 82.3277 79.5741 82.9122 80.2972 82.9122H82.9121C83.6352 82.9122 84.2196 82.3277 84.2196 81.6047C84.2196 80.8816 83.6352 80.2972 82.9121 80.2972H80.2972Z"/>
</mask>
<path d="M35.0073 24.075C30.9358 24.075 28.1699 25.7093 25.4948 27.2901C23.0602 28.7283 20.7604 30.0864 17.5375 30.0864C16.8157 30.0864 16.23 30.6708 16.23 31.3938V59.3977V88.1421C16.23 88.8652 16.8157 89.4496 17.5375 89.4496C20.597 89.4496 23.2562 87.9725 25.8268 86.5461C28.5477 85.0346 31.3637 83.474 34.8286 83.474C39.1812 83.474 41.9356 85.1046 44.6016 86.6814C47.01 88.1053 49.2838 89.4496 52.3878 89.4496C56.0069 89.4496 58.6371 87.9701 61.1802 86.541C63.8605 85.0321 66.6331 83.474 70.851 83.474C73.415 83.474 76.0775 84.8545 78.8952 86.3162C81.8684 87.8565 84.9414 89.4496 88.1421 89.4496C88.8639 89.4496 89.4496 88.8652 89.4496 88.1421V59.3977V31.3938C89.4496 31.0461 89.3111 30.7152 89.0666 30.4694C88.8221 30.2236 88.4886 30.0864 88.1421 30.0864C85.199 30.0864 83.3256 28.9514 81.1552 27.6374C78.3977 25.9664 75.2727 24.075 69.5001 24.075C65.4351 24.075 62.9377 25.7912 60.7333 27.3079C58.5916 28.7802 56.745 30.0532 53.5599 30.0532C50.4442 30.0532 48.2528 28.8274 45.7175 27.4101C42.9221 25.8463 39.7509 24.075 35.0073 24.075ZM35.0073 26.6899C39.071 26.6899 41.6805 28.1476 44.4432 29.6931C45.0525 30.0337 45.6706 30.373 46.3023 30.6992V33.2274C46.3023 33.9504 46.8881 34.5349 47.6098 34.5349C48.3316 34.5349 48.9173 33.9504 48.9173 33.2274V31.8484C50.3006 32.337 51.8114 32.6656 53.5599 32.6656C54.7569 32.6656 55.8051 32.501 56.7623 32.2468V41.0724C56.7623 41.7954 57.348 42.3799 58.0698 42.3799C58.7915 42.3799 59.3773 41.7954 59.3773 41.0724V31.2304C60.4202 30.688 61.3455 30.0603 62.217 29.4607C64.2907 28.0355 66.2484 26.6899 69.5001 26.6899C74.5418 26.6899 77.2155 28.308 79.8017 29.8744C81.8127 31.0904 83.8849 32.3459 86.8372 32.6375V57.9549C84.6974 57.5634 82.4754 56.3098 80.1439 54.9824C77.1629 53.2865 74.0792 51.5323 70.851 51.5323C65.9192 51.5323 62.6974 53.5213 59.8523 55.2786C57.4059 56.7874 55.293 58.0902 52.3878 58.0902C50.0291 58.0902 48.1536 56.8719 45.9806 55.4625C43.1433 53.6202 39.9265 51.5323 34.8286 51.5323C30.6577 51.5323 27.3933 53.5201 24.5116 55.276C22.5793 56.4523 20.7335 57.5634 18.845 57.9421V32.6401C20.3021 32.503 21.5824 32.1364 22.7674 31.6569V35.8424C22.7674 36.5654 23.3532 37.1499 24.0749 37.1499C24.7967 37.1499 25.3824 36.5654 25.3824 35.8424V30.6124C25.3824 30.5361 25.3515 30.4706 25.339 30.3979C25.8402 30.1165 26.335 29.8309 26.8227 29.5424C29.3057 28.0767 31.6497 26.6899 35.0073 26.6899ZM80.2972 31.9199C79.5741 31.9199 78.9897 32.5044 78.9897 33.2274C78.9897 33.9504 79.5741 34.5349 80.2972 34.5349H82.9121C83.6352 34.5349 84.2196 33.9504 84.2196 33.2274C84.2196 32.5044 83.6352 31.9199 82.9121 31.9199H80.2972ZM47.6098 37.1499C46.8881 37.1499 46.3023 37.7343 46.3023 38.4574V44.9948C46.3023 45.7179 46.8881 46.3023 47.6098 46.3023C48.3316 46.3023 48.9173 45.7179 48.9173 44.9948V38.4574C48.9173 37.7343 48.3316 37.1499 47.6098 37.1499ZM80.2972 38.4574C79.5741 38.4574 78.9897 39.0418 78.9897 39.7649C78.9897 40.4879 79.5741 41.0724 80.2972 41.0724H82.9121C83.6352 41.0724 84.2196 40.4879 84.2196 39.7649C84.2196 39.0418 83.6352 38.4574 82.9121 38.4574H80.2972ZM24.0749 39.7649C23.3532 39.7649 22.7674 40.3493 22.7674 41.0724V51.5323C22.7674 52.2554 23.3532 52.8398 24.0749 52.8398C24.7967 52.8398 25.3824 52.2554 25.3824 51.5323V41.0724C25.3824 40.3493 24.7967 39.7649 24.0749 39.7649ZM58.0698 44.9948C57.348 44.9948 56.7623 45.5793 56.7623 46.3023V51.5323C56.7623 52.2554 57.348 52.8398 58.0698 52.8398C58.7915 52.8398 59.3773 52.2554 59.3773 51.5323V46.3023C59.3773 45.5793 58.7915 44.9948 58.0698 44.9948ZM80.2972 44.9948C79.5741 44.9948 78.9897 45.5793 78.9897 46.3023C78.9897 47.0254 79.5741 47.6098 80.2972 47.6098H82.9121C83.6352 47.6098 84.2196 47.0254 84.2196 46.3023C84.2196 45.5793 83.6352 44.9948 82.9121 44.9948H80.2972ZM47.6098 48.9173C46.8881 48.9173 46.3023 49.5018 46.3023 50.2248V52.8398C46.3023 53.5629 46.8881 54.1473 47.6098 54.1473C48.3316 54.1473 48.9173 53.5629 48.9173 52.8398V50.2248C48.9173 49.5018 48.3316 48.9173 47.6098 48.9173ZM80.2972 51.5323C79.5741 51.5323 78.9897 52.1168 78.9897 52.8398C78.9897 53.5629 79.5741 54.1473 80.2972 54.1473H82.9121C83.6352 54.1473 84.2196 53.5629 84.2196 52.8398C84.2196 52.1168 83.6352 51.5323 82.9121 51.5323H80.2972ZM34.8286 54.1473C39.1511 54.1473 41.8988 55.9315 44.5556 57.6561C46.8659 59.1545 49.255 60.7052 52.3878 60.7052C56.0357 60.7052 58.6752 59.0758 61.2261 57.5003C63.8974 55.8529 66.6605 54.1473 70.851 54.1473C73.3876 54.1473 76.0407 55.6561 78.8492 57.2551C81.4258 58.7209 84.0804 60.2255 86.8372 60.6082V86.7197C84.6772 86.3628 82.4436 85.2058 80.1005 83.9898C77.1273 82.4496 74.0518 80.8564 70.851 80.8564C65.9479 80.8564 62.7342 82.6654 59.8982 84.2605C59.7202 84.3608 59.5522 84.4486 59.3773 84.5465V78.9897C59.3773 78.2666 58.7915 77.6822 58.0698 77.6822C57.348 77.6822 56.7623 78.2666 56.7623 78.9897V85.5271C56.7623 85.637 56.7981 85.7342 56.8236 85.8361C55.4672 86.4254 54.0629 86.8346 52.3903 86.8346C51.1315 86.8346 50.0133 86.5146 48.9173 86.0328V75.0672C48.9173 74.3442 48.3316 73.7597 47.6098 73.7597C46.8881 73.7597 46.3023 74.3442 46.3023 75.0672V84.641C46.1783 84.5679 46.0605 84.5035 45.9346 84.4291C43.1052 82.7555 39.8964 80.859 34.8286 80.859C31.0686 80.859 28.0573 82.3491 25.3824 83.8162V80.2972C25.3824 79.5741 24.7967 78.9897 24.0749 78.9897C23.3532 78.9897 22.7674 79.5741 22.7674 80.2972V85.2233C21.455 85.9037 20.1613 86.4777 18.845 86.7146V60.6031C21.3904 60.232 23.6647 58.8531 25.8727 57.508C28.5871 55.8566 31.3925 54.1473 34.8286 54.1473ZM47.6098 60.6848C46.8881 60.6848 46.3023 61.2692 46.3023 61.9923V69.8372C46.3023 70.5603 46.8881 71.1447 47.6098 71.1447C48.3316 71.1447 48.9173 70.5603 48.9173 69.8372V61.9923C48.9173 61.2692 48.3316 60.6848 47.6098 60.6848ZM80.2972 60.6848C79.5741 60.6848 78.9897 61.2692 78.9897 61.9923C78.9897 62.7153 79.5741 63.2998 80.2972 63.2998H82.9121C83.6352 63.2998 84.2196 62.7153 84.2196 61.9923C84.2196 61.2692 83.6352 60.6848 82.9121 60.6848H80.2972ZM24.0749 61.9923C23.3532 61.9923 22.7674 62.5767 22.7674 63.2998V75.0672C22.7674 75.7902 23.3532 76.3747 24.0749 76.3747C24.7967 76.3747 25.3824 75.7902 25.3824 75.0672V63.2998C25.3824 62.5767 24.7967 61.9923 24.0749 61.9923ZM58.0698 61.9923C57.348 61.9923 56.7623 62.5767 56.7623 63.2998V73.7597C56.7623 74.4827 57.348 75.0672 58.0698 75.0672C58.7915 75.0672 59.3773 74.4827 59.3773 73.7597V63.2998C59.3773 62.5767 58.7915 61.9923 58.0698 61.9923ZM80.2972 67.2222C79.5741 67.2222 78.9897 67.8067 78.9897 68.5297C78.9897 69.2528 79.5741 69.8372 80.2972 69.8372H82.9121C83.6352 69.8372 84.2196 69.2528 84.2196 68.5297C84.2196 67.8067 83.6352 67.2222 82.9121 67.2222H80.2972ZM80.2972 73.7597C79.5741 73.7597 78.9897 74.3442 78.9897 75.0672C78.9897 75.7902 79.5741 76.3747 80.2972 76.3747H82.9121C83.6352 76.3747 84.2196 75.7902 84.2196 75.0672C84.2196 74.3442 83.6352 73.7597 82.9121 73.7597H80.2972ZM80.2972 80.2972C79.5741 80.2972 78.9897 80.8816 78.9897 81.6047C78.9897 82.3277 79.5741 82.9122 80.2972 82.9122H82.9121C83.6352 82.9122 84.2196 82.3277 84.2196 81.6047C84.2196 80.8816 83.6352 80.2972 82.9121 80.2972H80.2972Z" fill="white" stroke="#164396" stroke-width="2" mask="url(#path-4-inside-1_395_62)"/>
</svg>
