<svg width="106" height="107" viewBox="0 0 106 107" fill="none" xmlns="http://www.w3.org/2000/svg">
<path d="M0 6C0 3.23858 2.23858 1 5 1H76C92.5685 1 106 14.4315 106 31V87C106 98.0457 97.0457 107 86 107H30C13.4315 107 0 93.5685 0 77V6Z" fill="#164396"/>
<mask id="mask0_395_65" style="mask-type:alpha" maskUnits="userSpaceOnUse" x="0" y="1" width="106" height="106">
<path d="M0 6C0 3.23858 2.23858 1 5 1H76C92.5685 1 106 14.4315 106 31V87C106 98.0457 97.0457 107 86 107H30C13.4315 107 0 93.5685 0 77V6Z" fill="#E5E5E5"/>
</mask>
<g mask="url(#mask0_395_65)">
<rect x="103" y="31" width="20" height="47" fill="#00D2A0"/>
</g>
<mask id="path-4-inside-1_395_65" fill="white">
<path d="M41.125 24.3859C40.9171 24.3974 40.7158 24.4628 40.5408 24.5757C40.3658 24.6885 40.2232 24.845 40.127 25.0296C40.0307 25.2143 39.9842 25.4208 39.9919 25.6289C39.9997 25.8369 40.0614 26.0394 40.1711 26.2164C40.1711 26.2164 44.2286 32.8 53.2 32.8C53.359 32.8023 53.5169 32.7729 53.6645 32.7136C53.812 32.6543 53.9463 32.5663 54.0596 32.4546C54.1728 32.343 54.2628 32.2099 54.3241 32.0632C54.3855 31.9165 54.4171 31.759 54.4171 31.6C54.4171 31.441 54.3855 31.2835 54.3241 31.1368C54.2628 30.9901 54.1728 30.8571 54.0596 30.7454C53.9463 30.6338 53.812 30.5457 53.6645 30.4864C53.5169 30.4271 53.359 30.3978 53.2 30.4C45.3715 30.4 42.2289 24.9836 42.2289 24.9836C42.1281 24.8094 41.9851 24.6634 41.8131 24.559C41.6411 24.4546 41.4456 24.3951 41.2446 24.3859C41.2047 24.384 41.1648 24.384 41.125 24.3859ZM52 24.4C51.841 24.3978 51.6831 24.4271 51.5356 24.4864C51.388 24.5457 51.2537 24.6338 51.1405 24.7454C51.0272 24.8571 50.9373 24.9901 50.8759 25.1368C50.8145 25.2835 50.7829 25.441 50.7829 25.6C50.7829 25.759 50.8145 25.9165 50.8759 26.0632C50.9373 26.2099 51.0272 26.343 51.1405 26.4546C51.2537 26.5663 51.388 26.6543 51.5356 26.7136C51.6831 26.7729 51.841 26.8023 52 26.8C56.2 26.8 59.5516 30.0484 59.5516 30.0484L60.1633 30.6602L60.9367 30.2734C60.9367 30.2734 63.2 29.2 65.2 29.2C68.2667 29.2 70.3516 31.2484 70.3516 31.2484C70.4622 31.3636 70.5946 31.4556 70.7412 31.5189C70.8877 31.5822 71.0454 31.6157 71.2051 31.6173C71.3647 31.619 71.5231 31.5887 71.6709 31.5284C71.8187 31.468 71.953 31.3788 72.0659 31.2659C72.1788 31.153 72.268 31.0187 72.3284 30.8709C72.3887 30.7231 72.419 30.5647 72.4173 30.4051C72.4157 30.2454 72.3823 30.0877 72.3189 29.9411C72.2556 29.7946 72.1636 29.6621 72.0485 29.5516C72.0485 29.5516 69.3334 26.8 65.2 26.8C63.0121 26.8 61.3528 27.4818 60.5711 27.8359C59.7324 27.0568 56.696 24.4 52 24.4ZM67.6774 34L66.4774 52H66.4H60.4V38.2961L43.6 44.2984V38.2961L24.4 45.1539V79.6H79.6V52H77.1227L75.9227 34H67.6774ZM69.9227 36.4H73.6774L74.8774 54.4H77.2V77.2H26.8V46.8461L41.2 41.7016V54.4H43.6V46.8461L58 41.7016V54.4H59.2H60.4H66.4H68.7227H72.4V52H68.8821L69.9227 36.4ZM30.4 50.8V55.6H32.8V50.8H30.4ZM35.2 50.8V55.6H37.6V50.8H35.2ZM47.2 50.8V55.6H49.6V50.8H47.2ZM52 50.8V55.6H54.4V50.8H52ZM30.4 59.2V64H32.8V59.2H30.4ZM35.2 59.2V64H37.6V59.2H35.2ZM41.2 59.2V64H43.6V59.2H41.2ZM47.2 59.2V64H49.6V59.2H47.2ZM52 59.2V64H54.4V59.2H52ZM61.6 59.2V61.6H66.4V59.2H61.6ZM68.8 59.2V61.6H73.6V59.2H68.8ZM30.4 67.6V72.4H32.8V67.6H30.4ZM35.2 67.6V72.4H37.6V67.6H35.2ZM41.2 67.6V72.4H43.6V67.6H41.2ZM47.2 67.6V72.4H49.6V67.6H47.2ZM52 67.6V72.4H54.4V67.6H52Z"/>
</mask>
<path d="M41.125 24.3859C40.9171 24.3974 40.7158 24.4628 40.5408 24.5757C40.3658 24.6885 40.2232 24.845 40.127 25.0296C40.0307 25.2143 39.9842 25.4208 39.9919 25.6289C39.9997 25.8369 40.0614 26.0394 40.1711 26.2164C40.1711 26.2164 44.2286 32.8 53.2 32.8C53.359 32.8023 53.5169 32.7729 53.6645 32.7136C53.812 32.6543 53.9463 32.5663 54.0596 32.4546C54.1728 32.343 54.2628 32.2099 54.3241 32.0632C54.3855 31.9165 54.4171 31.759 54.4171 31.6C54.4171 31.441 54.3855 31.2835 54.3241 31.1368C54.2628 30.9901 54.1728 30.8571 54.0596 30.7454C53.9463 30.6338 53.812 30.5457 53.6645 30.4864C53.5169 30.4271 53.359 30.3978 53.2 30.4C45.3715 30.4 42.2289 24.9836 42.2289 24.9836C42.1281 24.8094 41.9851 24.6634 41.8131 24.559C41.6411 24.4546 41.4456 24.3951 41.2446 24.3859C41.2047 24.384 41.1648 24.384 41.125 24.3859ZM52 24.4C51.841 24.3978 51.6831 24.4271 51.5356 24.4864C51.388 24.5457 51.2537 24.6338 51.1405 24.7454C51.0272 24.8571 50.9373 24.9901 50.8759 25.1368C50.8145 25.2835 50.7829 25.441 50.7829 25.6C50.7829 25.759 50.8145 25.9165 50.8759 26.0632C50.9373 26.2099 51.0272 26.343 51.1405 26.4546C51.2537 26.5663 51.388 26.6543 51.5356 26.7136C51.6831 26.7729 51.841 26.8023 52 26.8C56.2 26.8 59.5516 30.0484 59.5516 30.0484L60.1633 30.6602L60.9367 30.2734C60.9367 30.2734 63.2 29.2 65.2 29.2C68.2667 29.2 70.3516 31.2484 70.3516 31.2484C70.4622 31.3636 70.5946 31.4556 70.7412 31.5189C70.8877 31.5822 71.0454 31.6157 71.2051 31.6173C71.3647 31.619 71.5231 31.5887 71.6709 31.5284C71.8187 31.468 71.953 31.3788 72.0659 31.2659C72.1788 31.153 72.268 31.0187 72.3284 30.8709C72.3887 30.7231 72.419 30.5647 72.4173 30.4051C72.4157 30.2454 72.3823 30.0877 72.3189 29.9411C72.2556 29.7946 72.1636 29.6621 72.0485 29.5516C72.0485 29.5516 69.3334 26.8 65.2 26.8C63.0121 26.8 61.3528 27.4818 60.5711 27.8359C59.7324 27.0568 56.696 24.4 52 24.4ZM67.6774 34L66.4774 52H66.4H60.4V38.2961L43.6 44.2984V38.2961L24.4 45.1539V79.6H79.6V52H77.1227L75.9227 34H67.6774ZM69.9227 36.4H73.6774L74.8774 54.4H77.2V77.2H26.8V46.8461L41.2 41.7016V54.4H43.6V46.8461L58 41.7016V54.4H59.2H60.4H66.4H68.7227H72.4V52H68.8821L69.9227 36.4ZM30.4 50.8V55.6H32.8V50.8H30.4ZM35.2 50.8V55.6H37.6V50.8H35.2ZM47.2 50.8V55.6H49.6V50.8H47.2ZM52 50.8V55.6H54.4V50.8H52ZM30.4 59.2V64H32.8V59.2H30.4ZM35.2 59.2V64H37.6V59.2H35.2ZM41.2 59.2V64H43.6V59.2H41.2ZM47.2 59.2V64H49.6V59.2H47.2ZM52 59.2V64H54.4V59.2H52ZM61.6 59.2V61.6H66.4V59.2H61.6ZM68.8 59.2V61.6H73.6V59.2H68.8ZM30.4 67.6V72.4H32.8V67.6H30.4ZM35.2 67.6V72.4H37.6V67.6H35.2ZM41.2 67.6V72.4H43.6V67.6H41.2ZM47.2 67.6V72.4H49.6V67.6H47.2ZM52 67.6V72.4H54.4V67.6H52Z" fill="white" stroke="#164396" stroke-width="1.2" mask="url(#path-4-inside-1_395_65)"/>
</svg>
