<svg width="98" height="98" viewBox="0 0 98 98" fill="none" xmlns="http://www.w3.org/2000/svg">
<circle cx="49" cy="49" r="49" fill="white"/>
<path d="M71.4034 45.9357C72.3484 44.9907 72.2521 43.4069 71.1278 42.6763C64.4006 38.3067 56.5482 35.9872 48.5265 36.0001C40.1921 36.0001 32.4265 38.4501 25.9253 42.6763C25.6652 42.8518 25.4477 43.0834 25.2889 43.354C25.1301 43.6246 25.0339 43.9274 25.0075 44.24C24.981 44.5527 25.025 44.8673 25.1361 45.1607C25.2472 45.4542 25.4227 45.719 25.6496 45.9357C26.0224 46.2995 26.5078 46.5258 27.0261 46.5775C27.5444 46.6292 28.0649 46.5031 28.5021 46.2201C34.4785 42.3922 41.4294 40.3633 48.5265 40.3751C55.6236 40.3633 62.5745 42.3922 68.5509 46.2201C69.4478 46.7976 70.6509 46.6926 71.4034 45.9357ZM61.8528 55.4863C62.8415 54.4976 62.6621 52.8394 61.4153 52.2051C57.4231 50.1735 53.0059 49.1179 48.5265 49.1251C43.889 49.1251 39.5053 50.2363 35.6378 52.2051C34.3909 52.8394 34.2115 54.4976 35.2003 55.4863L35.2659 55.5519C35.9659 56.2519 37.0509 56.3832 37.939 55.9457C41.2344 54.3306 44.8566 53.4939 48.5265 53.5001C52.324 53.5001 55.9203 54.3794 59.114 55.9501C60.0021 56.3876 61.0828 56.2563 61.7871 55.5519L61.8528 55.4863V55.4863ZM53.164 64.1751C54.0215 63.3176 54.0303 61.9001 52.989 61.2876C51.6393 60.4841 50.0973 60.0609 48.5265 60.0626C46.9557 60.0609 45.4138 60.4841 44.064 61.2876C43.0228 61.9001 43.0315 63.3176 43.889 64.1751L46.9778 67.2638C47.181 67.4675 47.4223 67.6291 47.6881 67.7394C47.9539 67.8497 48.2388 67.9065 48.5265 67.9065C48.8142 67.9065 49.0991 67.8497 49.3649 67.7394C49.6307 67.6291 49.8721 67.4675 50.0753 67.2638L53.1684 64.1707L53.164 64.1751Z" fill="#1283D6"/>
</svg>
