<svg width="98" height="98" viewBox="0 0 98 98" fill="none" xmlns="http://www.w3.org/2000/svg">
<circle cx="49" cy="49" r="49" fill="white"/>
<path d="M47.8611 48.0278C51.6111 48.0278 54.5278 44.9722 54.5278 41.2222C54.5278 37.4722 51.4722 34.5555 47.7222 34.5555C43.9722 34.5555 41.0555 37.6111 41.0555 41.2222C41.0555 44.9722 44.1111 48.0278 47.8611 48.0278ZM47.7222 37.3333C47.8611 37.3333 47.8611 37.3333 47.7222 37.3333C49.9444 37.3333 51.75 39.1389 51.75 41.3611C51.75 43.5833 49.9444 45.25 47.7222 45.25C45.5 45.25 43.8333 43.4444 43.8333 41.3611C43.8333 39.1389 45.6389 37.3333 47.7222 37.3333V37.3333Z" fill="#1283D6"/>
<path d="M68.4166 47.1944C65.7778 44.8333 62.3055 43.5833 58.6944 43.7222H57.5833C57.3055 44.8333 56.8889 45.8055 56.3333 46.6389C57.1666 46.5 57.8611 46.5 58.6944 46.5C61.3333 46.3611 63.9722 47.1944 66.0555 48.7222V58.7222H68.8333V47.6111L68.4166 47.1944Z" fill="#1283D6"/>
<path d="M55.5 34.8333C56.1944 33.1667 58.1389 32.3333 59.9444 33.0278C61.6111 33.7222 62.4444 35.6667 61.75 37.4722C61.1944 38.7222 59.9444 39.5556 58.6944 39.5556C58.4167 39.5556 58 39.5556 57.7222 39.4167C57.8611 40.1111 57.8611 40.8056 57.8611 41.3611V42.1945C58.1389 42.1945 58.4167 42.3333 58.6944 42.3333C62.1667 42.3333 64.9444 39.5556 64.9444 36.2222C64.9444 32.75 62.1667 29.9722 58.8333 29.9722C56.6111 29.9722 54.6667 31.0833 53.5555 33.0278C54.25 33.4445 54.9444 34 55.5 34.8333V34.8333Z" fill="#1283D6"/>
<path d="M39.6667 46.7778C39.1111 45.9444 38.6945 44.9722 38.4167 43.8611H37.3056C33.6945 43.7222 30.2222 44.9722 27.5834 47.1944L27.1667 47.6111V58.7222H29.9445V48.7222C32.1667 47.1944 34.6667 46.3611 37.3056 46.5C38.1389 46.5 38.9722 46.6389 39.6667 46.7778Z" fill="#1283D6"/>
<path d="M37.3056 42.1944C37.5833 42.1944 37.8611 42.1944 38.1389 42.0555V41.2222C38.1389 40.5278 38.1389 39.8333 38.2778 39.2778C38 39.4167 37.5833 39.4167 37.3056 39.4167C35.5 39.4167 33.9722 37.8889 33.9722 36.0833C33.9722 34.2778 35.5 32.75 37.3056 32.75C38.6944 32.75 39.9444 33.5833 40.5 34.8333C41.0556 34.1389 41.8889 33.4444 42.5833 32.8889C40.7778 29.9722 37.0278 29 34.1111 30.8055C31.1944 32.6111 30.2222 36.3611 32.0278 39.2778C33.1389 41.0833 35.0833 42.1944 37.3056 42.1944V42.1944Z" fill="#1283D6"/>
<path d="M59.25 55.5278L58.9722 55.1111C56.1945 52.0555 52.3056 50.25 48.1389 50.3889C43.9722 50.25 39.9445 52.0555 37.1667 55.1111L36.8889 55.5278V66.0833C36.8889 67.3333 37.8611 68.4444 39.25 68.4444H57.0278C58.2778 68.4444 59.3889 67.3333 59.3889 66.0833V55.5278H59.25ZM56.4722 65.6667H39.6667V56.5C41.8889 54.2778 44.9445 53.1667 48.1389 53.1667C51.1945 53.0278 54.25 54.2778 56.4722 56.5V65.6667Z" fill="#1283D6"/>
</svg>
