<svg width="98" height="98" viewBox="0 0 98 98" fill="none" xmlns="http://www.w3.org/2000/svg">
<circle cx="49" cy="49" r="49" fill="white"/>
<path d="M65.3333 42.3333H53.174L55.6072 35.0382C56.0448 33.7208 55.8238 32.2605 55.0113 31.1338C54.1988 30.0072 52.8815 29.3333 51.4927 29.3333H48C47.3565 29.3333 46.7477 29.6193 46.3338 30.1133L36.1505 42.3333H30.6667C28.2768 42.3333 26.3333 44.2768 26.3333 46.6667V66.1667C26.3333 68.5565 28.2768 70.5 30.6667 70.5H59.4985C60.3801 70.4971 61.24 70.2267 61.9647 69.7245C62.6893 69.2224 63.2444 68.5121 63.5567 67.6877L69.5302 51.7605C69.6209 51.5172 69.6671 51.2596 69.6667 51V46.6667C69.6667 44.2768 67.7232 42.3333 65.3333 42.3333ZM30.6667 46.6667H35V66.1667H30.6667V46.6667ZM65.3333 50.6078L59.4985 66.1667H39.3333V45.2843L49.014 33.6667H51.497L48.1127 43.8132C48.0028 44.1389 47.9722 44.486 48.0233 44.8259C48.0744 45.1658 48.2058 45.4886 48.4066 45.7676C48.6074 46.0466 48.8718 46.2736 49.1779 46.43C49.484 46.5864 49.823 46.6675 50.1667 46.6667H65.3333V50.6078Z" fill="#1283D6"/>
</svg>
