<svg width="88" height="111" viewBox="0 0 88 111" fill="none" xmlns="http://www.w3.org/2000/svg">
<path d="M8.73908 5.70348L7.20968 0L5.68027 5.70348L0 7.23913L5.68027 8.77478L7.20968 14.4783L8.73908 8.77478L14.4194 7.23913L8.73908 5.70348Z" fill="#0747A6"/>
<path d="M27.9649 5.70348L26.4355 0L24.9061 5.70348L19.2258 7.23913L24.9061 8.77478L26.4355 14.4783L27.9649 8.77478L33.6452 7.23913L27.9649 5.70348Z" fill="#0747A6"/>
<path d="M45.6613 0L47.1907 5.70348L52.871 7.23913L47.1907 8.77478L45.6613 14.4783L44.1319 8.77478L38.4516 7.23913L44.1319 5.70348L45.6613 0Z" fill="#0747A6"/>
<path d="M66.4165 5.70348L64.8871 0L63.3577 5.70348L57.6774 7.23913L63.3577 8.77478L64.8871 14.4783L66.4165 8.77478L72.0968 7.23913L66.4165 5.70348Z" fill="#0747A6"/>
<path d="M84.1129 0L85.6423 5.70348L91.3226 7.23913L85.6423 8.77478L84.1129 14.4783L82.5835 8.77478L76.9032 7.23913L82.5835 5.70348L84.1129 0Z" fill="#0747A6"/>
<path d="M104.868 5.70348L103.339 0L101.809 5.70348L96.129 7.23913L101.809 8.77478L103.339 14.4783L104.868 8.77478L110.548 7.23913L104.868 5.70348Z" fill="#0747A6"/>
<path d="M122.565 0L124.094 5.70348L129.774 7.23913L124.094 8.77478L122.565 14.4783L121.035 8.77478L115.355 7.23913L121.035 5.70348L122.565 0Z" fill="#0747A6"/>
<path d="M143.32 5.70348L141.79 0L140.261 5.70348L134.581 7.23913L140.261 8.77478L141.79 14.4783L143.32 8.77478L149 7.23913L143.32 5.70348Z" fill="#0747A6"/>
<path d="M7.20968 19.3043L8.73908 25.0078L14.4194 26.5435L8.73908 28.0791L7.20968 33.7826L5.68027 28.0791L0 26.5435L5.68027 25.0078L7.20968 19.3043Z" fill="#0747A6"/>
<path d="M27.9649 25.0078L26.4355 19.3043L24.9061 25.0078L19.2258 26.5435L24.9061 28.0791L26.4355 33.7826L27.9649 28.0791L33.6452 26.5435L27.9649 25.0078Z" fill="#0747A6"/>
<path d="M45.6613 19.3043L47.1907 25.0078L52.871 26.5435L47.1907 28.0791L45.6613 33.7826L44.1319 28.0791L38.4516 26.5435L44.1319 25.0078L45.6613 19.3043Z" fill="#0747A6"/>
<path d="M66.4165 25.0078L64.8871 19.3043L63.3577 25.0078L57.6774 26.5435L63.3577 28.0791L64.8871 33.7826L66.4165 28.0791L72.0968 26.5435L66.4165 25.0078Z" fill="#0747A6"/>
<path d="M84.1129 19.3043L85.6423 25.0078L91.3226 26.5435L85.6423 28.0791L84.1129 33.7826L82.5835 28.0791L76.9032 26.5435L82.5835 25.0078L84.1129 19.3043Z" fill="#0747A6"/>
<path d="M104.868 25.0078L103.339 19.3043L101.809 25.0078L96.129 26.5435L101.809 28.0791L103.339 33.7826L104.868 28.0791L110.548 26.5435L104.868 25.0078Z" fill="#0747A6"/>
<path d="M122.565 19.3043L124.094 25.0078L129.774 26.5435L124.094 28.0791L122.565 33.7826L121.035 28.0791L115.355 26.5435L121.035 25.0078L122.565 19.3043Z" fill="#0747A6"/>
<path d="M143.32 25.0078L141.79 19.3043L140.261 25.0078L134.581 26.5435L140.261 28.0791L141.79 33.7826L143.32 28.0791L149 26.5435L143.32 25.0078Z" fill="#0747A6"/>
<path d="M7.20968 38.6087L8.73908 44.3122L14.4194 45.8478L8.73908 47.3835L7.20968 53.087L5.68027 47.3835L0 45.8478L5.68027 44.3122L7.20968 38.6087Z" fill="#0747A6"/>
<path d="M27.9649 44.3122L26.4355 38.6087L24.9061 44.3122L19.2258 45.8478L24.9061 47.3835L26.4355 53.087L27.9649 47.3835L33.6452 45.8478L27.9649 44.3122Z" fill="#0747A6"/>
<path d="M45.6613 38.6087L47.1907 44.3122L52.871 45.8478L47.1907 47.3835L45.6613 53.087L44.1319 47.3835L38.4516 45.8478L44.1319 44.3122L45.6613 38.6087Z" fill="#0747A6"/>
<path d="M66.4165 44.3122L64.8871 38.6087L63.3577 44.3122L57.6774 45.8478L63.3577 47.3835L64.8871 53.087L66.4165 47.3835L72.0968 45.8478L66.4165 44.3122Z" fill="#0747A6"/>
<path d="M84.1129 38.6087L85.6423 44.3122L91.3226 45.8478L85.6423 47.3835L84.1129 53.087L82.5835 47.3835L76.9032 45.8478L82.5835 44.3122L84.1129 38.6087Z" fill="#0747A6"/>
<path d="M104.868 44.3122L103.339 38.6087L101.809 44.3122L96.129 45.8478L101.809 47.3835L103.339 53.087L104.868 47.3835L110.548 45.8478L104.868 44.3122Z" fill="#0747A6"/>
<path d="M122.565 38.6087L124.094 44.3122L129.774 45.8478L124.094 47.3835L122.565 53.087L121.035 47.3835L115.355 45.8478L121.035 44.3122L122.565 38.6087Z" fill="#0747A6"/>
<path d="M143.32 44.3122L141.79 38.6087L140.261 44.3122L134.581 45.8478L140.261 47.3835L141.79 53.087L143.32 47.3835L149 45.8478L143.32 44.3122Z" fill="#0747A6"/>
<path d="M7.20968 57.913L8.73908 63.6165L14.4194 65.1522L8.73908 66.6878L7.20968 72.3913L5.68027 66.6878L0 65.1522L5.68027 63.6165L7.20968 57.913Z" fill="#0747A6"/>
<path d="M27.9649 63.6165L26.4355 57.913L24.9061 63.6165L19.2258 65.1522L24.9061 66.6878L26.4355 72.3913L27.9649 66.6878L33.6452 65.1522L27.9649 63.6165Z" fill="#0747A6"/>
<path d="M45.6613 57.913L47.1907 63.6165L52.871 65.1522L47.1907 66.6878L45.6613 72.3913L44.1319 66.6878L38.4516 65.1522L44.1319 63.6165L45.6613 57.913Z" fill="#0747A6"/>
<path d="M66.4165 63.6165L64.8871 57.913L63.3577 63.6165L57.6774 65.1522L63.3577 66.6878L64.8871 72.3913L66.4165 66.6878L72.0968 65.1522L66.4165 63.6165Z" fill="#0747A6"/>
<path d="M84.1129 57.913L85.6423 63.6165L91.3226 65.1522L85.6423 66.6878L84.1129 72.3913L82.5835 66.6878L76.9032 65.1522L82.5835 63.6165L84.1129 57.913Z" fill="#0747A6"/>
<path d="M104.868 63.6165L103.339 57.913L101.809 63.6165L96.129 65.1522L101.809 66.6878L103.339 72.3913L104.868 66.6878L110.548 65.1522L104.868 63.6165Z" fill="#0747A6"/>
<path d="M122.565 57.913L124.094 63.6165L129.774 65.1522L124.094 66.6878L122.565 72.3913L121.035 66.6878L115.355 65.1522L121.035 63.6165L122.565 57.913Z" fill="#0747A6"/>
<path d="M143.32 63.6165L141.79 57.913L140.261 63.6165L134.581 65.1522L140.261 66.6878L141.79 72.3913L143.32 66.6878L149 65.1522L143.32 63.6165Z" fill="#0747A6"/>
<path d="M7.20968 77.2174L8.73908 82.9209L14.4194 84.4565L8.73908 85.9922L7.20968 91.6957L5.68027 85.9922L0 84.4565L5.68027 82.9209L7.20968 77.2174Z" fill="#0747A6"/>
<path d="M27.9649 82.9209L26.4355 77.2174L24.9061 82.9209L19.2258 84.4565L24.9061 85.9922L26.4355 91.6957L27.9649 85.9922L33.6452 84.4565L27.9649 82.9209Z" fill="#0747A6"/>
<path d="M45.6613 77.2174L47.1907 82.9209L52.871 84.4565L47.1907 85.9922L45.6613 91.6957L44.1319 85.9922L38.4516 84.4565L44.1319 82.9209L45.6613 77.2174Z" fill="#0747A6"/>
<path d="M66.4165 82.9209L64.8871 77.2174L63.3577 82.9209L57.6774 84.4565L63.3577 85.9922L64.8871 91.6957L66.4165 85.9922L72.0968 84.4565L66.4165 82.9209Z" fill="#0747A6"/>
<path d="M84.1129 77.2174L85.6423 82.9209L91.3226 84.4565L85.6423 85.9922L84.1129 91.6957L82.5835 85.9922L76.9032 84.4565L82.5835 82.9209L84.1129 77.2174Z" fill="#0747A6"/>
<path d="M104.868 82.9209L103.339 77.2174L101.809 82.9209L96.129 84.4565L101.809 85.9922L103.339 91.6957L104.868 85.9922L110.548 84.4565L104.868 82.9209Z" fill="#0747A6"/>
<path d="M122.565 77.2174L124.094 82.9209L129.774 84.4565L124.094 85.9922L122.565 91.6957L121.035 85.9922L115.355 84.4565L121.035 82.9209L122.565 77.2174Z" fill="#0747A6"/>
<path d="M143.32 82.9209L141.79 77.2174L140.261 82.9209L134.581 84.4565L140.261 85.9922L141.79 91.6957L143.32 85.9922L149 84.4565L143.32 82.9209Z" fill="#0747A6"/>
<path d="M7.20968 96.5217L8.73908 102.225L14.4194 103.761L8.73908 105.297L7.20968 111L5.68027 105.297L0 103.761L5.68027 102.225L7.20968 96.5217Z" fill="#0747A6"/>
<path d="M27.9649 102.225L26.4355 96.5217L24.9061 102.225L19.2258 103.761L24.9061 105.297L26.4355 111L27.9649 105.297L33.6452 103.761L27.9649 102.225Z" fill="#0747A6"/>
<path d="M45.6613 96.5217L47.1907 102.225L52.871 103.761L47.1907 105.297L45.6613 111L44.1319 105.297L38.4516 103.761L44.1319 102.225L45.6613 96.5217Z" fill="#0747A6"/>
<path d="M66.4165 102.225L64.8871 96.5217L63.3577 102.225L57.6774 103.761L63.3577 105.297L64.8871 111L66.4165 105.297L72.0968 103.761L66.4165 102.225Z" fill="#0747A6"/>
<path d="M84.1129 96.5217L85.6423 102.225L91.3226 103.761L85.6423 105.297L84.1129 111L82.5835 105.297L76.9032 103.761L82.5835 102.225L84.1129 96.5217Z" fill="#0747A6"/>
<path d="M104.868 102.225L103.339 96.5217L101.809 102.225L96.129 103.761L101.809 105.297L103.339 111L104.868 105.297L110.548 103.761L104.868 102.225Z" fill="#0747A6"/>
<path d="M122.565 96.5217L124.094 102.225L129.774 103.761L124.094 105.297L122.565 111L121.035 105.297L115.355 103.761L121.035 102.225L122.565 96.5217Z" fill="#0747A6"/>
<path d="M143.32 102.225L141.79 96.5217L140.261 102.225L134.581 103.761L140.261 105.297L141.79 111L143.32 105.297L149 103.761L143.32 102.225Z" fill="#0747A6"/>
</svg>
