<svg xmlns:xlink="http://www.w3.org/1999/xlink" width="72" height="72" viewBox="0 0 72 72" fill="none" xmlns="http://www.w3.org/2000/svg"><path d="M7.30176 64.9545L11.3428 50.202C8.84976 45.885 7.53876 40.986 7.54026 35.9685C7.54776 20.271 20.3218 7.5 36.0208 7.5C43.6393 7.503 50.7883 10.4685 56.1658 15.849C61.5418 21.231 64.5028 28.383 64.4998 35.991C64.4938 51.6885 51.7168 64.461 36.0208 64.461C36.0193 64.461 36.0208 64.461 36.0208 64.461H36.0088C31.2433 64.4595 26.5588 63.264 22.3993 60.9945L7.30176 64.9545Z" fill="#FFFFFF"></path><path d="M7.30208 65.7045C7.10408 65.7045 6.91208 65.6265 6.76958 65.4825C6.58208 65.292 6.50858 65.0145 6.57908 64.758L10.5376 50.304C8.08358 45.945 6.78908 40.995 6.79208 35.97C6.79808 19.857 19.9096 6.75 36.0211 6.75C43.8361 6.753 51.1786 9.7965 56.6971 15.3195C62.2156 20.844 65.2531 28.185 65.2501 35.991C65.2441 52.1025 52.1311 65.211 36.0211 65.211C31.2376 65.2095 26.5051 64.029 22.3051 61.7955L7.49258 65.679C7.42958 65.697 7.36658 65.7045 7.30208 65.7045Z" fill="#FFFFFF"></path><path d="M36.0214 7.5C43.6399 7.503 50.7889 10.4685 56.1664 15.849C61.5424 21.231 64.5034 28.383 64.5004 35.991C64.4944 51.6885 51.7174 64.461 36.0214 64.461H36.0094C31.2439 64.4595 26.5594 63.264 22.3999 60.9945L7.30238 64.9545L11.3434 50.202C8.85038 45.885 7.53937 40.986 7.54087 35.9685C7.54837 20.271 20.3224 7.5 36.0214 7.5ZM36.0214 6C19.4974 6 6.04837 19.443 6.04087 35.9685C6.03937 41.019 7.31438 45.996 9.73238 50.4015L5.85488 64.56C5.71388 65.0775 5.85787 65.6295 6.23587 66.0105C6.52087 66.2985 6.90637 66.456 7.30238 66.456C7.42988 66.456 7.55738 66.4395 7.68338 66.4065L22.2139 62.5965C26.4559 64.7985 31.2109 65.961 36.0094 65.9625C52.5454 65.9625 65.9944 52.518 66.0019 35.9925C66.0049 27.984 62.8894 20.454 57.2299 14.79C51.5674 9.1245 44.0359 6.003 36.0214 6Z" fill="#CFD8DC"></path><path d="M52.7637 19.2481C48.2937 14.7751 42.3522 12.3106 36.0282 12.3091C22.9722 12.3091 12.3537 22.9231 12.3477 35.9701C12.3462 40.4416 13.5972 44.7946 15.9672 48.5641L16.5312 49.4596L14.1387 58.1911L23.0982 55.8421L23.9637 56.3551C27.5967 58.5121 31.7637 59.6521 36.0117 59.6536H36.0207C49.0677 59.6536 59.6862 49.0381 59.6907 35.9896C59.6922 29.6671 57.2337 23.7211 52.7637 19.2481Z" fill="#40C351"></path><path fill-rule="evenodd" clip-rule="evenodd" d="M28.9024 24.0673C28.3699 22.8823 27.8089 22.8583 27.3004 22.8373C26.8849 22.8193 26.4109 22.8208 25.9369 22.8208C25.4629 22.8208 24.6919 22.9993 24.0394 23.7118C23.3869 24.4243 21.5479 26.1448 21.5479 29.6458C21.5479 33.1468 24.0979 36.5308 24.4534 37.0048C24.8089 37.4788 29.3764 44.8933 36.6094 47.7463C42.6199 50.1163 43.8439 49.6453 45.1489 49.5268C46.4539 49.4083 49.3594 47.8063 49.9519 46.1443C50.5443 44.4823 50.5443 43.0588 50.3674 42.7618C50.1889 42.4648 49.7148 42.2878 49.0038 41.9308C48.2929 41.5738 44.7934 39.8533 44.1409 39.6163C43.4884 39.3793 43.0144 39.2608 42.5389 39.9733C42.0648 40.6843 40.7014 42.2878 40.2859 42.7618C39.8704 43.2373 39.4549 43.2973 38.7439 42.9403C38.0329 42.5833 35.7409 41.8333 33.0214 39.4093C30.9064 37.5238 29.4784 35.1943 29.0629 34.4818C28.6474 33.7708 29.0179 33.3853 29.3749 33.0298C29.6944 32.7103 30.0859 32.1988 30.4429 31.7833C30.7984 31.3678 30.9169 31.0708 31.1539 30.5968C31.3909 30.1213 31.2724 29.7058 31.0939 29.3503C30.9184 28.9933 29.5354 25.4743 28.9024 24.0673Z" fill="#FFFFFF"></path></svg>